<?xml version="1.0" encoding="UTF-8"?>
<!DOCTYPE svg PUBLIC "-//W3C//DTD SVG 1.1//EN" "http://www.w3.org/Graphics/SVG/1.1/DTD/svg11.dtd">
<!-- Creator: CorelDRAW X8 -->
<svg xmlns="http://www.w3.org/2000/svg" xml:space="preserve" width="60px" height="58px" version="1.1" style="shape-rendering:geometricPrecision; text-rendering:geometricPrecision; image-rendering:optimizeQuality; fill-rule:evenodd; clip-rule:evenodd"
viewBox="0 0 368 352"
 xmlns:xlink="http://www.w3.org/1999/xlink">
 <defs>
  <style type="text/css">
   <![CDATA[
    .str0 {stroke:#F3AC00;stroke-width:12.1797}
    .fil0 {fill:maroon}
    .fil1 {fill:#F3AC00}
   ]]>
  </style>
 </defs>
 <g id="Слой_x0020_1">
  <metadata id="CorelCorpID_0Corel-Layer"/>
  <path class="fil0 str0" d="M193 12l45 107 116 10c8,1 11,11 5,16l-88 76 27 114c1,8 -7,14 -14,10l-100 -61 -99 61c-7,4 -16,-2 -14,-10l26 -114 -88 -76c-6,-5 -3,-15 5,-16l117 -10 45 -107c3,-8 14,-8 17,0l0 0z"/>
  <g id="_2338902199008">
   <g>
    <g id="done">
     <polygon class="fil1" points="183,206 122,144 101,165 183,247 359,71 339,50 "/>
    </g>
   </g>
   <g>
   </g>
   <g>
   </g>
   <g>
   </g>
   <g>
   </g>
   <g>
   </g>
   <g>
   </g>
   <g>
   </g>
   <g>
   </g>
   <g>
   </g>
   <g>
   </g>
   <g>
   </g>
   <g>
   </g>
   <g>
   </g>
   <g>
   </g>
   <g>
   </g>
  </g>
 </g>
</svg>
