<svg xmlns="http://www.w3.org/2000/svg" xml:space="preserve" width="76px" height="76px" version="1.1" style="shape-rendering:geometricPrecision; text-rendering:geometricPrecision; image-rendering:optimizeQuality; fill-rule:evenodd; clip-rule:evenodd"
viewBox="0 0 697 697"
 xmlns:xlink="http://www.w3.org/1999/xlink">
 <defs>
  <style type="text/css">
   <![CDATA[
    .fil0 {fill:#F3AC00}
   ]]>
  </style>
 </defs>
 <g id="Слой_x0020_1">
  <metadata id="CorelCorpID_0Corel-Layer"/>
  <g id="_2339100355840">
   <path class="fil0" d="M238 497l221 0 0 23 -221 0 0 -23zm0 0z"/>
   <path class="fil0" d="M238 542l221 0 0 22 -221 0 0 -22zm0 0z"/>
   <path class="fil0" d="M282 586l133 0 0 22 -133 0 0 -22zm0 0z"/>
   <path class="fil0" d="M475 290c-4,-9 -12,-16 -20,-21 -4,-2 -8,-5 -10,-8 -3,-3 -4,-7 -5,-12 -1,-10 -6,-19 -14,-25 -8,-5 -18,-7 -28,-5 -4,0 -9,0 -13,-1 -4,-2 -7,-4 -10,-7 -7,-7 -17,-12 -27,-12 -10,0 -19,5 -26,12 -3,3 -7,5 -10,7 -5,1 -9,1 -13,1 -10,-2 -20,0 -29,5 -7,6 -12,15 -13,25 -1,5 -3,9 -5,12 -3,3 -6,6 -10,8 -9,5 -16,12 -20,21 -2,10 0,20 4,28 2,5 3,9 4,13 -1,5 -2,9 -4,13 -4,9 -6,19 -4,28 4,10 11,17 20,22 4,2 7,4 10,7 2,4 4,8 5,12 1,10 6,19 14,26 8,5 18,7 28,5 4,0 9,0 13,1 4,1 7,4 10,7 7,7 16,11 26,12 11,-1 20,-5 27,-12 3,-3 7,-6 10,-7 5,-1 9,-1 13,-1 10,2 20,0 28,-5 8,-7 13,-16 14,-26 1,-4 3,-8 5,-12 3,-3 6,-5 10,-7 9,-5 16,-12 20,-22 2,-9 0,-19 -4,-28 -2,-4 -3,-8 -4,-13 1,-4 2,-8 4,-13 4,-8 6,-18 4,-28l0 0zm-25 62c2,4 3,9 3,14 0,2 -6,6 -11,9 -6,3 -11,8 -15,13 -4,6 -7,13 -8,20 -1,4 -3,9 -6,13 -4,1 -9,2 -14,1 -7,-1 -14,0 -21,2 -6,2 -12,6 -17,10 -4,4 -9,8 -13,8 -3,0 -8,-4 -12,-8 -5,-4 -11,-8 -17,-10 -5,-2 -9,-2 -14,-2 -2,0 -5,0 -7,0 -5,1 -10,0 -14,-1 -3,-4 -5,-9 -6,-13 -1,-7 -4,-14 -8,-20 -4,-5 -9,-10 -16,-13 -4,-3 -10,-7 -10,-9 0,-5 1,-10 3,-14 3,-6 4,-14 5,-21 -1,-7 -2,-14 -5,-20 -2,-5 -3,-9 -4,-14 1,-3 7,-6 11,-9 6,-4 12,-8 16,-14 4,-6 7,-12 8,-19 1,-5 3,-9 6,-13 4,-2 9,-2 14,-1 7,0 14,0 21,-2 6,-2 12,-6 17,-11 4,-3 9,-7 12,-7 4,0 9,4 13,7 5,5 11,9 17,11 7,2 14,2 21,2 5,-1 10,-1 14,1 3,4 5,8 6,13 1,7 4,14 8,19 4,6 9,10 15,14 5,3 10,6 11,9 0,5 -1,9 -3,14 -3,6 -5,13 -5,20 0,8 2,15 5,21l0 0zm0 0z"/>
   <path class="fil0" d="M348 254c-42,0 -77,35 -77,77 0,43 35,78 77,78 43,0 78,-35 78,-78 0,-42 -35,-77 -78,-77zm0 133c-30,0 -55,-25 -55,-56 0,-30 25,-55 55,-55 31,0 56,25 56,55 0,31 -25,56 -56,56zm0 0z"/>
   <path class="fil0" d="M591 431c1,0 2,0 4,0 12,0 50,-2 75,-27 29,-29 27,-77 27,-79l-1 -10 -10 0c-22,-1 -45,5 -64,16 2,-13 3,-25 3,-38l6 -3c1,-1 44,-23 55,-62 10,-40 -16,-80 -17,-82l-5 -8 -9 4c-20,11 -37,27 -48,46 -5,-12 -10,-23 -16,-34l3 -5c2,-2 27,-42 17,-82 -11,-40 -53,-62 -55,-63l-9 -4 -6 8c-11,20 -18,42 -18,64 -5,-3 -9,-6 -13,-10l-13 18c92,66 129,185 92,292l-1 1c-13,36 -34,70 -62,97l0 -327 -355 0 0 327c-28,-27 -49,-61 -62,-97l-1 -1c-37,-107 0,-226 92,-292l-13 -18c-4,4 -9,7 -13,10 0,-22 -7,-44 -19,-64l-5 -8 -9 4c-2,1 -44,23 -55,63 -11,40 15,80 17,82l3 5c-6,11 -11,22 -16,34 -11,-19 -28,-35 -48,-46l-9 -4 -5 8c-1,2 -27,42 -17,82 11,39 53,61 55,62l6 3c0,13 1,25 3,38 -20,-11 -42,-17 -64,-16l-10 0 -1 10c0,2 -2,50 27,79 24,25 63,27 75,27 2,0 3,0 4,0l6 0c6,10 14,21 22,30 -23,1 -45,7 -64,20l-9 5 5 9c1,2 23,45 62,56 7,2 14,3 20,3 8,0 16,-1 23,-3l0 90c0,31 25,56 56,56l332 0c30,0 55,-25 55,-56l0 -55 -88 0 0 -36c8,2 17,3 26,4 7,0 14,-1 21,-3 39,-11 61,-54 62,-56l4 -9 -8 -5c-20,-13 -44,-20 -68,-19 8,-10 16,-21 22,-31l6 0zm-44 -347c-4,-18 -1,-38 8,-54 16,10 28,25 34,43 4,18 1,37 -8,54 -16,-10 -28,-25 -34,-43zm74 126c7,-17 19,-32 35,-42 9,16 12,35 8,54 -6,18 -18,33 -34,43 -9,-17 -12,-36 -9,-55l0 0zm2 147c15,-12 33,-19 51,-20 0,19 -7,37 -19,52 -15,12 -33,19 -52,19 1,-18 8,-36 20,-51l0 0zm-515 -284c6,-18 18,-33 34,-43 9,17 12,36 8,54 -6,18 -18,33 -34,43 -9,-16 -12,-36 -8,-54l0 0zm-41 192c-16,-10 -28,-25 -34,-43 -4,-19 -1,-38 8,-54 16,10 28,25 34,42 4,19 1,38 -8,55l0 0zm-25 124c-12,-15 -19,-33 -19,-52 18,1 36,8 51,20 12,15 19,33 20,51 -19,0 -37,-7 -52,-19zm129 139c-12,4 -24,4 -37,2 -18,-7 -33,-20 -43,-36 17,-9 36,-12 55,-9 9,3 18,8 25,15l0 28zm56 146c-19,0 -34,-14 -34,-33l0 -476 310 0 0 476c0,12 4,24 11,33l-287 0zm365 -66l0 33c0,19 -15,33 -33,33 -19,0 -33,-14 -33,-33l0 -33 66 0zm18 -114c-10,16 -25,29 -43,36 -14,3 -28,2 -41,-3l0 -24 0 0c8,-8 18,-14 29,-18 19,-3 38,0 55,9l0 0zm0 0z"/>
  </g>
 </g>
</svg>
