<svg xmlns="http://www.w3.org/2000/svg" width="82.289" height="34.038" viewBox="0 0 82.289 34.038"><path d="M30.39 28.674V1.004h3.776v27.67H30.39zm17.998 0h-7.894V1.004C43.856.844 46.28.76 47.764.76c2.733 0 4.85.59 6.347 1.766 1.5 1.178 2.25 2.86 2.25 5.052 0 1.285-.48 2.456-1.435 3.514-.957 1.058-2.015 1.72-3.173 1.982 2.19.53 3.788 1.404 4.79 2.625 1 1.22 1.5 2.88 1.5 4.983 0 2.43-.89 4.37-2.67 5.817-1.785 1.45-4.11 2.173-6.98 2.173zM44.27 4.028v7.95c.794.076 1.776.114 2.947.114 3.576 0 5.363-1.455 5.363-4.363 0-2.56-1.643-3.837-4.93-3.837a38.7 38.7 0 0 0-3.38.133zm0 10.878v10.558c1.297.126 2.293.188 2.985.188 2.367 0 4.095-.443 5.184-1.33 1.086-.89 1.63-2.302 1.63-4.24 0-1.8-.52-3.13-1.557-3.985-1.04-.856-2.773-1.284-5.203-1.284l-3.04.093zm33.826 13.768l-1.907-5.836H65.893l-2.04 5.836h-4.23L70.862.63h1L82.29 28.674h-4.194zM71.184 7.88l-4.287 12.182h8.216L71.183 7.88z" fill="#FFF"/><path fill="#AAA" d="M0 28.625l9.35-.034v5.45l14.088-9.153H3.878z"/><path fill="#FFF" d="M11.922 0L0 28.625l6.125-3.74 5.797-14.375V0z"/><path fill="#AAA" d="M21.02 21.885L11.907 0v10.51l4.597 11.375h4.518z"/></svg>