<svg id="Слой_1" xmlns="http://www.w3.org/2000/svg" viewBox="0 0 35.3 30.6"><style>.st0{fill:url(#SVGID_1_)}.st1{fill:url(#SVGID_2_)}.st2{fill:url(#SVGID_3_)}.st3{fill:url(#SVGID_4_)}.st4{fill:url(#SVGID_5_)}.st5{fill:url(#SVGID_6_)}.st6{fill:url(#SVGID_7_)}.st7{fill:url(#SVGID_8_)}.st8{fill:url(#SVGID_9_)}</style><linearGradient id="SVGID_1_" gradientUnits="userSpaceOnUse" x1="14.536" y1="2.55" x2="32.777" y2="32.622"><stop offset="0" stop-color="#4d0f11"/><stop offset=".361" stop-color="#801710"/><stop offset=".498" stop-color="#9c1915"/><stop offset=".796" stop-color="#821810"/></linearGradient><path class="st0" d="M17.7 15.1l4.6 7.9 8.5 4.9 4.5 2.7L17.7 0z"/><linearGradient id="SVGID_2_" gradientUnits="userSpaceOnUse" x1="19.102" y1="5.346" x2="2.732" y2="32.529"><stop offset=".067" stop-color="#e41924"/><stop offset=".416" stop-color="#b1191f"/><stop offset=".549" stop-color="#b5191b"/><stop offset=".894" stop-color="#d91621"/></linearGradient><path class="st1" d="M17.7 15.2V0L0 30.6 13.1 23z"/><linearGradient id="SVGID_3_" gradientUnits="userSpaceOnUse" x1="14.588" y1="2.518" x2="32.83" y2="32.59"><stop offset="0" stop-color="#4d0f11"/><stop offset=".361" stop-color="#801710"/><stop offset=".498" stop-color="#9c1915"/><stop offset=".796" stop-color="#821810"/></linearGradient><path class="st2" d="M17.7 15.2V0v.1z"/><linearGradient id="SVGID_4_" gradientUnits="userSpaceOnUse" x1="19.043" y1="5.31" x2="2.673" y2="32.494"><stop offset=".067" stop-color="#e41924"/><stop offset=".416" stop-color="#b1191f"/><stop offset=".549" stop-color="#b5191b"/><stop offset=".894" stop-color="#d91621"/></linearGradient><path class="st3" d="M17.7 15.2V0v.1z"/><linearGradient id="SVGID_5_" gradientUnits="userSpaceOnUse" x1="31.948" y1="24.648" x2="9.281" y2="30.879"><stop offset="0" stop-color="#cfcece"/><stop offset=".973" stop-color="#353535"/></linearGradient><path class="st4" d="M22.2 23h-9.1L0 30.6h35.3l-4.5-2.7z"/><linearGradient id="SVGID_6_" gradientUnits="userSpaceOnUse" x1="13.107" y1="3.417" x2="31.349" y2="33.488"><stop offset="0" stop-color="#4d0f11"/><stop offset=".361" stop-color="#801710"/><stop offset=".498" stop-color="#9c1915"/><stop offset=".796" stop-color="#821810"/></linearGradient><path class="st5" d="M22.2 23l8.6 4.9-8.5-4.9z"/><linearGradient id="SVGID_7_" gradientUnits="userSpaceOnUse" x1="31.774" y1="24.015" x2="9.107" y2="30.246"><stop offset="0" stop-color="#cfcece"/><stop offset=".973" stop-color="#353535"/></linearGradient><path class="st6" d="M22.2 23l8.6 4.9-8.5-4.9z"/><linearGradient id="SVGID_8_" gradientUnits="userSpaceOnUse" x1="19.38" y1="5.513" x2="3.011" y2="32.697"><stop offset=".067" stop-color="#e41924"/><stop offset=".416" stop-color="#b1191f"/><stop offset=".549" stop-color="#b5191b"/><stop offset=".894" stop-color="#d91621"/></linearGradient><path class="st7" d="M13.1 23L0 30.6z"/><linearGradient id="SVGID_9_" gradientUnits="userSpaceOnUse" x1="30.707" y1="20.135" x2="8.041" y2="26.366"><stop offset="0" stop-color="#cfcece"/><stop offset=".973" stop-color="#353535"/></linearGradient><path class="st8" d="M13.1 23L0 30.6z"/></svg>