<?xml version="1.0" encoding="UTF-8"?>
<!DOCTYPE svg PUBLIC "-//W3C//DTD SVG 1.1//EN" "http://www.w3.org/Graphics/SVG/1.1/DTD/svg11.dtd">
<!-- Creator: CorelDRAW X8 -->
<svg xmlns="http://www.w3.org/2000/svg" xml:space="preserve" width="472px" height="45px" version="1.1" style="shape-rendering:geometricPrecision; text-rendering:geometricPrecision; image-rendering:optimizeQuality; fill-rule:evenodd; clip-rule:evenodd"
viewBox="0 0 22733 2145"
 xmlns:xlink="http://www.w3.org/1999/xlink">
 <defs>
  <style type="text/css">
   <![CDATA[
    .fil3 {fill:black;fill-rule:nonzero}
    .fil5 {fill:#868686;fill-rule:nonzero}
    .fil4 {fill:#9D0D17;fill-rule:nonzero}
    .fil0 {fill:url(#id0)}
    .fil1 {fill:url(#id1)}
    .fil2 {fill:url(#id2)}
   ]]>
  </style>
  <linearGradient id="id0" gradientUnits="userSpaceOnUse" x1="837.983" y1="2549.14" x2="1470.15" y2="1518.72">
   <stop offset="0" style="stop-opacity:1; stop-color:#272727"/>
   <stop offset="1" style="stop-opacity:1; stop-color:#9B9B9B"/>
  </linearGradient>
  <linearGradient id="id1" gradientUnits="userSpaceOnUse" x1="489.111" y1="2026.93" x2="673.608" y2="8.12492">
   <stop offset="0" style="stop-opacity:1; stop-color:#B80B17"/>
   <stop offset="1" style="stop-opacity:1; stop-color:#D70819"/>
  </linearGradient>
  <linearGradient id="id2" gradientUnits="userSpaceOnUse" x1="1120.64" y1="1232.64" x2="2349.48" y2="802.415">
   <stop offset="0" style="stop-opacity:1; stop-color:#3F0000"/>
   <stop offset="1" style="stop-opacity:1; stop-color:#D70819"/>
  </linearGradient>
 </defs>
 <g id="Слой_x0020_1">
  <metadata id="CorelCorpID_0Corel-Layer"/>
  <g id="_2391532857216">
   <polygon class="fil0" points="2308,2033 0,2035 886,1520 1452,1519 "/>
   <polygon class="fil1" points="1155,0 8,2035 879,1521 1167,1001 "/>
   <polygon class="fil2" points="1158,0 2312,2035 1426,1507 1150,1001 "/>
  </g>
  <path class="fil3" d="M2635 2024l0 -1995 403 0 0 1995 -403 0zm2585 0l-438 0 -174 -453 -798 0 -164 453 -428 0 778 -1995 425 0 799 1995zm-742 -789l-275 -740 -269 740 544 0zm956 -1206l798 0c158,0 276,7 354,20 77,13 147,40 208,82 61,42 112,97 153,167 41,69 61,147 61,233 0,94 -25,179 -76,257 -50,79 -118,137 -204,176 121,35 215,95 280,181 66,85 98,185 98,301 0,91 -21,178 -63,264 -43,86 -100,154 -173,206 -74,51 -164,83 -270,95 -67,7 -229,11 -486,13l-680 0 0 -1995zm403 332l0 461 264 0c157,0 255,-2 293,-7 69,-8 124,-31 163,-71 40,-39 59,-91 59,-155 0,-62 -17,-113 -51,-151 -34,-39 -85,-62 -152,-70 -40,-5 -155,-7 -344,-7l-232 0zm0 793l0 534 373 0c146,0 238,-4 277,-12 60,-11 109,-38 147,-80 37,-42 56,-99 56,-169 0,-60 -14,-111 -44,-153 -29,-42 -72,-72 -126,-91 -55,-19 -174,-29 -357,-29l-326 0z"/>
  <path class="fil3" d="M8378 631l0 -499 150 0 91 340 89 -340 151 0 0 499 -93 0 0 -393 -99 393 -97 0 -99 -393 0 393 -93 0zm582 0l0 -499 369 0 0 84 -269 0 0 111 250 0 0 84 -250 0 0 136 279 0 0 84 -379 0zm777 -499l0 212c17,-1 30,-8 39,-19 8,-11 20,-36 35,-76 20,-52 41,-85 62,-99 20,-14 55,-21 103,-21 2,0 7,0 14,-1l0 75 -14 0c-21,0 -36,2 -45,7 -10,5 -18,13 -23,24 -6,10 -15,31 -27,64 -6,17 -12,31 -20,43 -7,12 -19,23 -37,33 22,6 40,19 55,38 15,19 31,47 48,82l68 137 -118 0 -60 -129c-1,-2 -2,-6 -6,-11 -1,-3 -6,-11 -12,-23 -13,-24 -23,-40 -31,-46 -8,-7 -18,-10 -31,-10l0 219 -98 0 0 -219c-12,0 -21,3 -30,10 -8,6 -19,21 -31,46 -7,13 -11,21 -13,23 -2,3 -4,7 -6,11l-59 129 -119 0 68 -137c17,-34 33,-61 48,-81 15,-20 33,-33 56,-39 -18,-10 -30,-21 -38,-33 -7,-11 -13,-26 -20,-43 -11,-32 -20,-53 -25,-64 -6,-11 -14,-18 -23,-24 -10,-5 -26,-7 -48,-7 -2,0 -7,0 -13,0l0 -75c8,1 13,1 15,1 49,0 83,7 104,21 21,15 41,48 60,99 16,40 28,65 36,76 9,11 21,18 38,19l0 -212 98 0zm357 0l345 0 0 415 43 0 0 192 -83 0 0 -108 -314 0 0 108 -84 0 0 -192 42 0c21,-43 35,-92 41,-149 7,-56 10,-127 10,-213l0 -53zm96 83c0,152 -14,262 -41,332l189 0 0 -332 -148 0zm318 -83l113 0 116 259 99 -259 106 0 -169 379c-18,41 -37,72 -56,93 -19,22 -43,33 -74,33 -30,0 -53,-2 -69,-6l0 -75c14,1 27,1 38,1 24,0 41,-4 51,-12 10,-9 19,-27 29,-55l-184 -358zm485 499l0 -499 100 0 0 196 198 0 0 -196 100 0 0 499 -100 0 0 -219 -198 0 0 219 -100 0zm952 0l-109 0 -44 -114 -199 0 -41 114 -107 0 194 -499 107 0 199 499zm-185 -198l-69 -185 -67 185 136 0zm239 198l0 -499 162 0c61,0 101,2 119,7 29,8 53,24 72,49 19,25 29,58 29,97 0,31 -6,57 -17,77 -11,21 -25,38 -42,49 -17,13 -35,20 -52,24 -24,5 -59,7 -105,7l-65 0 0 189 -101 0zm101 -415l0 142 55 0c40,0 66,-3 79,-8 14,-5 24,-14 32,-25 8,-11 11,-24 11,-38 0,-19 -5,-34 -16,-45 -10,-12 -24,-20 -40,-22 -12,-3 -37,-4 -73,-4l-48 0zm334 168c0,-51 8,-93 23,-128 11,-25 27,-48 46,-68 20,-20 41,-35 65,-45 31,-13 67,-20 107,-20 74,0 133,23 177,69 44,45 66,109 66,190 0,80 -22,143 -66,189 -44,45 -102,68 -175,68 -75,0 -134,-23 -177,-68 -44,-45 -66,-107 -66,-187zm104 -3c0,56 13,99 39,128 26,29 59,44 99,44 40,0 73,-14 99,-44 26,-28 39,-72 39,-130 0,-57 -13,-99 -38,-128 -25,-28 -58,-42 -100,-42 -41,0 -75,14 -100,43 -26,29 -38,71 -38,129zm489 -249l345 0 0 415 44 0 0 192 -84 0 0 -108 -314 0 0 108 -84 0 0 -192 43 0c20,-43 34,-92 40,-149 7,-56 10,-127 10,-213l0 -53zm96 83c0,152 -14,262 -41,332l190 0 0 -332 -149 0zm361 416l0 -499 100 0 0 196 198 0 0 -196 100 0 0 499 -100 0 0 -219 -198 0 0 219 -100 0zm952 0l-109 0 -44 -114 -199 0 -41 114 -107 0 194 -499 107 0 199 499zm-185 -198l-69 -185 -67 185 136 0zm537 198l0 -209 -20 0c-32,0 -54,5 -67,15 -13,9 -36,37 -67,85l-73 109 -120 0 60 -98c24,-38 44,-65 58,-81 14,-15 32,-29 54,-42 -47,-7 -80,-23 -101,-48 -21,-25 -31,-55 -31,-90 0,-30 8,-57 23,-81 15,-23 36,-39 61,-47 25,-8 62,-12 112,-12l212 0 0 499 -101 0zm0 -415l-78 0c-40,0 -67,1 -79,3 -13,1 -23,8 -33,18 -9,11 -13,24 -13,41 0,18 4,31 13,42 9,10 20,16 33,19 14,3 41,4 83,4l74 0 0 -127zm846 415l-110 0 -43 -114 -199 0 -42 114 -106 0 194 -499 106 0 200 499zm-185 -198l-69 -185 -67 185 136 0zm240 -301l101 0 0 212c22,-2 38,-8 46,-17 7,-10 20,-35 36,-78 21,-54 42,-87 63,-101 21,-13 55,-19 101,-19 2,0 7,0 15,-1l0 75 -14 0c-21,0 -36,2 -46,7 -9,5 -17,13 -23,24 -6,10 -14,31 -26,64 -6,17 -13,31 -20,43 -7,12 -20,23 -38,33 23,6 41,19 56,38 14,19 30,47 48,82l68 137 -118 0 -60 -129c-1,-2 -3,-6 -6,-11 -1,-2 -5,-10 -12,-23 -13,-25 -24,-40 -32,-46 -8,-7 -21,-10 -38,-10l0 219 -101 0 0 -499zm874 499l-110 0 -43 -114 -200 0 -41 114 -107 0 194 -499 107 0 200 499zm-186 -198l-69 -185 -67 185 136 0zm305 -301l345 0 0 415 44 0 0 192 -84 0 0 -108 -314 0 0 108 -84 0 0 -192 42 0c21,-43 35,-92 41,-149 7,-56 10,-127 10,-213l0 -53zm96 83c0,152 -14,262 -41,332l190 0 0 -332 -149 0zm360 416l0 -499 370 0 0 84 -269 0 0 111 250 0 0 84 -250 0 0 136 279 0 0 84 -380 0zm464 0l0 -499 150 0 91 340 89 -340 151 0 0 499 -93 0 0 -393 -99 393 -97 0 -99 -393 0 393 -93 0zm583 -499l94 0 0 332 202 -332 101 0 0 499 -95 0 0 -326 -201 326 -101 0 0 -499zm798 499l0 -209 -21 0c-31,0 -54,5 -67,15 -13,9 -35,37 -67,85l-72 109 -121 0 61 -98c24,-38 43,-65 58,-81 14,-15 32,-29 53,-42 -46,-7 -80,-23 -100,-48 -21,-25 -31,-55 -31,-90 0,-30 7,-57 23,-81 15,-23 35,-39 60,-47 25,-8 63,-12 113,-12l211 0 0 499 -100 0zm0 -415l-79 0c-40,0 -66,1 -78,3 -13,1 -24,8 -33,18 -9,11 -14,24 -14,41 0,18 5,31 14,42 8,10 19,16 33,19 13,3 41,4 82,4l75 0 0 -127zm398 -84l373 0 0 83 -272 0 0 116 134 0c37,0 68,5 93,14 24,9 45,26 63,50 17,25 26,53 26,86 0,34 -9,63 -26,87 -18,24 -38,40 -60,49 -22,9 -54,14 -96,14l-235 0 0 -499zm101 415l98 0c31,0 53,-2 66,-5 12,-3 23,-10 33,-21 9,-11 14,-24 14,-40 0,-23 -8,-40 -25,-50 -16,-11 -44,-16 -84,-16l-102 0 0 132zm399 -415l94 0 0 332 202 -332 101 0 0 499 -95 0 0 -326 -202 326 -100 0 0 -499zm571 136l-98 -23c21,-81 81,-122 180,-122 58,0 102,13 132,39 30,26 45,56 45,91 0,23 -7,45 -21,64 -13,19 -34,36 -61,50 33,12 58,28 75,49 16,20 24,46 24,76 0,44 -16,79 -48,107 -32,27 -80,40 -144,40 -52,0 -93,-9 -123,-26 -31,-17 -53,-50 -68,-97l92 -31c9,30 22,50 38,58 15,9 35,14 58,14 32,0 55,-7 70,-21 14,-14 21,-29 21,-47 0,-20 -8,-37 -24,-49 -17,-13 -42,-19 -75,-19l-22 0 0 -75 11 0c31,0 54,-7 71,-21 16,-14 24,-32 24,-55 0,-18 -6,-34 -20,-46 -13,-13 -32,-19 -56,-19 -43,0 -70,21 -81,63zm365 363l0 -499 101 0 0 196 198 0 0 -196 100 0 0 499 -100 0 0 -219 -198 0 0 219 -101 0zm504 0l0 -499 369 0 0 84 -269 0 0 111 251 0 0 84 -251 0 0 136 279 0 0 84 -379 0zm783 -184l98 31c-15,55 -40,95 -75,121 -35,27 -79,40 -132,40 -66,0 -121,-23 -164,-68 -42,-45 -63,-107 -63,-185 0,-84 21,-148 64,-194 43,-46 99,-69 169,-69 61,0 111,18 149,54 22,22 39,52 51,92l-100 24c-6,-26 -18,-46 -37,-61 -19,-15 -42,-23 -68,-23 -37,0 -67,13 -90,40 -23,27 -35,70 -35,129 0,63 12,108 34,135 23,26 53,40 89,40 26,0 50,-9 69,-26 19,-17 33,-43 41,-80zm617 184l-110 0 -43 -114 -200 0 -41 114 -106 0 194 -499 106 0 200 499zm-185 -198l-69 -185 -68 185 137 0z"/>
  <path class="fil4" d="M8395 1405l0 -516 69 0 0 516 -69 0zm188 0l0 -516 70 0 271 405 0 -405 65 0 0 516 -70 0 -271 -405 0 405 -65 0zm652 0l0 -455 -170 0 0 -61 409 0 0 61 -171 0 0 455 -68 0zm310 0l0 -516 373 0 0 61 -305 0 0 158 285 0 0 60 -285 0 0 176 317 0 0 61 -385 0zm480 0l0 -516 228 0c46,0 81,5 105,14 24,9 43,26 57,49 15,24 22,50 22,78 0,37 -12,67 -36,92 -23,25 -60,41 -109,48 18,9 31,18 41,26 20,18 39,41 57,68l89 141 -86 0 -68 -107c-20,-31 -36,-55 -49,-72 -13,-16 -25,-27 -35,-34 -10,-6 -20,-11 -31,-14 -8,-1 -20,-2 -38,-2l-79 0 0 229 -68 0zm68 -288l147 0c31,0 55,-4 73,-10 17,-6 31,-17 40,-31 9,-14 14,-29 14,-46 0,-24 -9,-44 -27,-60 -18,-16 -46,-24 -84,-24l-163 0 0 171zm450 288l0 -516 70 0 271 405 0 -405 65 0 0 516 -70 0 -270 -405 0 405 -66 0zm464 0l198 -516 74 0 211 516 -78 0 -60 -156 -216 0 -56 156 -73 0zm149 -212l175 0 -54 -143c-17,-43 -29,-79 -37,-107 -6,34 -15,66 -27,99l-57 151zm466 212l0 -455 -170 0 0 -61 408 0 0 61 -170 0 0 455 -68 0zm320 0l0 -516 68 0 0 516 -68 0zm168 -251c0,-86 23,-153 69,-201 46,-49 105,-73 178,-73 47,0 90,12 128,34 38,23 68,55 88,95 20,41 30,87 30,139 0,52 -11,99 -32,140 -21,41 -51,72 -90,94 -38,21 -80,31 -125,31 -48,0 -92,-11 -130,-35 -38,-23 -67,-55 -87,-96 -19,-40 -29,-83 -29,-128zm70 1c0,62 17,111 50,146 34,36 75,54 126,54 51,0 93,-18 127,-54 33,-36 49,-87 49,-154 0,-41 -7,-78 -21,-109 -14,-32 -35,-56 -62,-73 -27,-17 -58,-26 -92,-26 -48,0 -90,16 -125,50 -35,33 -52,88 -52,166zm510 250l0 -516 70 0 271 405 0 -405 65 0 0 516 -70 0 -271 -405 0 405 -65 0zm464 0l198 -516 73 0 211 516 -78 0 -60 -156 -215 0 -57 156 -72 0zm149 -212l174 0 -53 -143c-17,-43 -29,-79 -37,-107 -6,34 -16,66 -28,99l-56 151zm385 212l0 -516 68 0 0 455 254 0 0 61 -322 0zm480 0l198 -516 74 0 210 516 -77 0 -60 -156 -216 0 -56 156 -73 0zm149 -212l175 0 -54 -143c-17,-43 -29,-79 -37,-107 -6,34 -15,66 -27,99l-57 151zm756 31l68 17c-14,56 -40,99 -77,128 -37,30 -83,44 -136,44 -56,0 -101,-11 -136,-33 -35,-23 -61,-56 -79,-99 -18,-43 -28,-89 -28,-138 0,-54 11,-100 31,-140 21,-40 50,-71 88,-91 37,-21 79,-31 125,-31 51,0 95,13 130,39 35,26 59,63 73,111l-67 16c-12,-38 -29,-65 -52,-83 -23,-16 -51,-25 -86,-25 -39,0 -72,9 -99,28 -27,19 -45,45 -56,77 -11,32 -16,65 -16,99 0,44 6,82 19,115 13,32 32,57 59,73 27,16 56,24 88,24 38,0 71,-11 97,-33 26,-22 44,-55 54,-98zm95 181l198 -516 74 0 211 516 -78 0 -60 -156 -216 0 -56 156 -73 0zm149 -212l175 0 -54 -143c-17,-43 -29,-79 -36,-107 -7,34 -16,66 -28,99l-57 151zm388 212l0 -516 178 0c40,0 71,3 92,8 29,6 54,19 75,37 27,23 48,52 61,88 14,35 20,76 20,122 0,39 -4,74 -13,104 -10,31 -21,55 -35,75 -15,20 -30,36 -47,47 -17,11 -38,20 -62,26 -24,6 -52,9 -83,9l-186 0zm68 -61l110 0c34,0 61,-3 80,-10 20,-6 35,-15 47,-26 16,-16 28,-38 37,-66 9,-27 14,-60 14,-99 0,-54 -9,-95 -27,-124 -17,-29 -39,-48 -64,-58 -18,-7 -48,-11 -88,-11l-109 0 0 394zm454 61l0 -516 372 0 0 61 -304 0 0 158 285 0 0 60 -285 0 0 176 316 0 0 61 -384 0zm476 0l0 -516 103 0 122 365c11,34 19,60 25,77 5,-19 14,-47 27,-83l123 -359 92 0 0 516 -65 0 0 -432 -150 432 -62 0 -149 -439 0 439 -66 0zm748 0l0 -219 -199 -297 83 0 101 156c19,29 37,58 53,87 15,-27 34,-57 56,-91l100 -152 79 0 -205 297 0 219 -68 0zm501 -251c0,-86 23,-153 69,-201 46,-49 105,-73 178,-73 47,0 90,12 128,34 38,23 68,55 88,95 20,41 30,87 30,139 0,52 -11,99 -32,140 -21,41 -51,72 -90,94 -38,21 -80,31 -125,31 -48,0 -92,-11 -130,-35 -38,-23 -67,-55 -87,-96 -19,-40 -29,-83 -29,-128zm70 1c0,62 17,111 50,146 34,36 75,54 126,54 51,0 93,-18 127,-54 33,-36 49,-87 49,-154 0,-41 -7,-78 -21,-109 -14,-32 -35,-56 -62,-73 -28,-17 -58,-26 -92,-26 -48,0 -90,16 -125,50 -35,33 -52,88 -52,166zm514 250l0 -516 348 0 0 61 -280 0 0 160 242 0 0 61 -242 0 0 234 -68 0zm633 0l0 -516 194 0c39,0 71,5 94,16 24,10 43,26 56,48 14,22 21,45 21,68 0,22 -6,43 -18,62 -12,20 -30,36 -54,47 31,10 55,25 71,47 17,22 25,48 25,78 0,24 -5,47 -15,67 -10,21 -23,37 -38,49 -14,11 -33,19 -56,25 -23,6 -50,9 -83,9l-197 0zm69 -299l111 0c30,0 52,-2 65,-6 17,-5 31,-14 39,-26 9,-12 13,-27 13,-45 0,-17 -4,-32 -12,-45 -8,-13 -20,-22 -35,-27 -15,-4 -42,-7 -78,-7l-103 0 0 156zm0 238l128 0c22,0 37,-1 46,-3 16,-2 29,-7 40,-14 10,-6 19,-16 26,-28 6,-13 10,-27 10,-44 0,-19 -5,-36 -15,-50 -10,-14 -24,-24 -41,-30 -17,-5 -42,-8 -75,-8l-119 0 0 177zm753 -455l68 0 0 298c0,52 -6,93 -18,123 -12,31 -33,56 -63,75 -31,19 -71,28 -121,28 -48,0 -87,-8 -118,-25 -31,-16 -53,-40 -66,-72 -13,-31 -20,-74 -20,-129l0 -298 69 0 0 298c0,44 4,77 12,99 9,21 23,37 43,49 20,11 45,17 74,17 51,0 86,-11 108,-34 21,-23 32,-67 32,-131l0 -298zm158 350l65 -6c3,26 10,47 21,64 11,16 28,30 52,40 23,10 49,15 79,15 26,0 49,-4 69,-11 20,-8 34,-19 44,-32 10,-13 15,-28 15,-44 0,-16 -5,-31 -14,-43 -10,-12 -25,-22 -47,-30 -13,-6 -44,-14 -91,-25 -48,-12 -81,-22 -100,-32 -25,-13 -43,-29 -55,-48 -12,-19 -18,-41 -18,-64 0,-26 7,-51 22,-73 15,-23 36,-40 65,-52 28,-12 60,-17 94,-17 39,0 72,6 101,18 30,12 52,30 68,54 15,24 24,51 25,81l-65 5c-4,-32 -16,-57 -36,-74 -20,-16 -50,-24 -90,-24 -41,0 -71,7 -90,22 -19,15 -28,34 -28,55 0,19 6,34 20,46 13,12 47,24 102,36 56,13 94,24 115,33 30,14 52,32 66,53 14,21 22,46 22,73 0,28 -8,53 -24,78 -16,24 -38,43 -68,56 -29,14 -62,20 -99,20 -47,0 -86,-6 -117,-20 -32,-14 -57,-34 -75,-61 -18,-28 -27,-58 -28,-93zm515 166l0 -516 68 0 0 516 -68 0zm188 0l0 -516 70 0 271 405 0 -405 65 0 0 516 -70 0 -271 -405 0 405 -65 0zm522 0l0 -516 373 0 0 61 -305 0 0 158 285 0 0 60 -285 0 0 176 317 0 0 61 -385 0zm456 -166l64 -6c3,26 10,47 21,64 12,16 29,30 52,40 24,10 50,15 79,15 26,0 49,-4 69,-11 20,-8 35,-19 45,-32 9,-13 14,-28 14,-44 0,-16 -4,-31 -14,-43 -9,-12 -25,-22 -46,-30 -14,-6 -45,-14 -92,-25 -47,-12 -81,-22 -100,-32 -24,-13 -42,-29 -55,-48 -12,-19 -18,-41 -18,-64 0,-26 8,-51 23,-73 14,-23 36,-40 64,-52 29,-12 60,-17 95,-17 38,0 72,6 101,18 29,12 51,30 67,54 16,24 24,51 25,81l-65 5c-3,-32 -15,-57 -36,-74 -20,-16 -50,-24 -89,-24 -42,0 -72,7 -91,22 -19,15 -28,34 -28,55 0,19 7,34 20,46 13,12 48,24 103,36 55,13 93,24 114,33 30,14 52,32 67,53 14,21 21,46 21,73 0,28 -8,53 -23,78 -16,24 -39,43 -68,56 -30,14 -63,20 -100,20 -46,0 -85,-6 -117,-20 -31,-14 -56,-34 -74,-61 -18,-28 -27,-58 -28,-93zm480 0l64 -6c3,26 10,47 21,64 12,16 29,30 52,40 24,10 50,15 80,15 25,0 49,-4 68,-11 20,-8 35,-19 45,-32 10,-13 14,-28 14,-44 0,-16 -4,-31 -14,-43 -9,-12 -24,-22 -46,-30 -14,-6 -44,-14 -92,-25 -47,-12 -80,-22 -99,-32 -25,-13 -43,-29 -55,-48 -12,-19 -18,-41 -18,-64 0,-26 7,-51 22,-73 15,-23 36,-40 65,-52 28,-12 59,-17 94,-17 38,0 72,6 101,18 29,12 52,30 67,54 16,24 24,51 26,81l-66 5c-3,-32 -15,-57 -35,-74 -21,-16 -51,-24 -90,-24 -42,0 -72,7 -90,22 -19,15 -29,34 -29,55 0,19 7,34 20,46 14,12 48,24 103,36 55,13 94,24 114,33 30,14 52,32 67,53 14,21 21,46 21,73 0,28 -8,53 -23,78 -16,24 -39,43 -68,56 -29,14 -62,20 -99,20 -47,0 -86,-6 -118,-20 -31,-14 -56,-34 -74,-61 -18,-28 -27,-58 -28,-93z"/>
  <path class="fil5" d="M8371 2024l0 -410 82 0 97 290c9,27 15,48 19,61 5,-15 12,-37 22,-66l98 -285 73 0 0 410 -52 0 0 -343 -119 343 -49 0 -119 -349 0 349 -52 0zm682 -96l52 7c-8,30 -23,54 -46,70 -22,17 -50,26 -84,26 -44,0 -78,-14 -104,-40 -25,-27 -38,-65 -38,-113 0,-50 13,-89 39,-116 25,-28 59,-42 100,-42 39,0 72,14 97,41 25,27 38,65 38,114 0,3 0,7 0,13l-222 0c2,33 11,58 28,75 16,18 37,26 62,26 18,0 34,-5 47,-14 13,-10 23,-25 31,-47zm-165 -81l166 0c-3,-25 -9,-44 -19,-56 -16,-20 -37,-29 -63,-29 -23,0 -42,7 -58,23 -16,15 -25,36 -26,62zm454 -120l0 128c16,0 27,-3 33,-9 7,-6 17,-24 29,-54 12,-28 22,-46 32,-54 9,-7 23,-11 43,-11l19 0 0 42 -14 -1c-14,0 -22,2 -26,6 -4,4 -10,17 -18,37 -7,19 -14,33 -20,40 -7,8 -17,14 -30,21 22,5 43,25 64,60l55 92 -55 0 -54 -92c-11,-19 -21,-31 -29,-37 -8,-5 -18,-8 -29,-8l0 137 -52 0 0 -137c-11,0 -21,2 -29,8 -8,6 -18,18 -29,37l-54 92 -55 0 55 -92c21,-35 42,-55 64,-60 -15,-7 -25,-15 -31,-23 -6,-8 -15,-27 -27,-58 -4,-10 -9,-17 -13,-19 -5,-2 -12,-4 -22,-4 -2,0 -7,0 -15,1l0 -42 7 0c20,0 33,1 41,3 8,3 15,8 22,15 6,8 14,24 24,47 12,30 22,47 28,54 7,6 18,9 34,9l0 -128 52 0zm243 0l207 0 0 256 32 0 0 125 -41 0 0 -84 -234 0 0 84 -42 0 0 -125 27 0c36,-48 52,-134 51,-256zm42 42c-4,96 -19,167 -45,214l160 0 0 -214 -115 0zm250 370l-5 -48c11,3 20,5 28,5 12,0 21,-2 27,-6 7,-4 12,-9 17,-16 3,-5 8,-17 15,-37 1,-3 3,-7 5,-12l-113 -298 54 0 62 172c8,22 15,45 21,69 6,-23 13,-46 21,-68l64 -173 50 0 -113 302c-12,33 -22,55 -28,67 -9,17 -19,29 -31,37 -11,8 -25,12 -41,12 -10,0 -21,-2 -33,-6zm321 -412l51 0 0 124 139 0 0 -124 51 0 0 297 -51 0 0 -132 -139 0 0 132 -51 0 0 -297zm510 260c-18,16 -36,27 -54,34 -17,6 -35,10 -55,10 -33,0 -58,-8 -75,-24 -18,-16 -27,-36 -27,-61 0,-15 4,-28 10,-40 7,-12 16,-22 26,-29 11,-7 23,-13 37,-17 9,-2 24,-5 44,-7 41,-5 71,-11 90,-18 0,-6 0,-11 0,-13 0,-20 -4,-35 -14,-43 -13,-11 -32,-17 -57,-17 -24,0 -42,4 -53,12 -11,9 -19,23 -25,44l-49 -6c4,-21 12,-38 22,-51 10,-13 25,-23 45,-30 19,-7 42,-11 67,-11 25,0 46,3 62,9 16,6 27,14 35,23 7,9 12,20 15,34 2,9 3,24 3,46l0 67c0,47 1,77 3,89 2,13 7,25 13,36l-53 0c-5,-10 -8,-23 -10,-37zm-4 -112c-18,7 -46,14 -82,19 -21,3 -35,6 -44,10 -9,4 -15,9 -20,16 -5,8 -7,16 -7,24 0,14 5,25 15,34 11,9 25,13 45,13 19,0 37,-4 52,-12 15,-9 26,-20 33,-35 5,-12 8,-28 8,-51l0 -18zm129 263l0 -411 46 0 0 38c11,-15 23,-26 37,-33 13,-8 30,-12 49,-12 25,0 48,7 67,20 19,13 34,31 44,55 10,24 15,50 15,78 0,31 -6,58 -16,82 -11,25 -27,43 -48,56 -21,13 -43,20 -66,20 -16,0 -31,-4 -45,-11 -13,-7 -24,-16 -33,-27l0 145 -50 0zm46 -261c0,38 7,67 23,85 15,18 34,27 56,27 22,0 42,-9 58,-28 16,-19 23,-48 23,-88 0,-38 -7,-66 -23,-85 -15,-19 -34,-28 -56,-28 -21,0 -40,10 -57,30 -16,20 -24,49 -24,87zm254 -2c0,-55 15,-95 46,-122 25,-22 57,-33 93,-33 41,0 74,13 100,40 26,27 39,64 39,111 0,39 -5,69 -17,91 -12,21 -28,38 -50,50 -22,13 -46,19 -72,19 -41,0 -75,-14 -101,-40 -25,-27 -38,-65 -38,-116zm52 0c0,39 8,67 25,86 16,19 37,28 62,28 25,0 46,-9 63,-28 16,-19 24,-48 24,-87 0,-37 -8,-65 -25,-84 -16,-19 -37,-28 -62,-28 -25,0 -46,9 -62,28 -17,19 -25,47 -25,85zm312 -148l207 0 0 256 33 0 0 125 -42 0 0 -84 -234 0 0 84 -41 0 0 -125 27 0c35,-48 52,-134 50,-256zm43 42c-4,96 -19,167 -45,214l159 0 0 -214 -114 0zm252 -42l51 0 0 124 139 0 0 -124 51 0 0 297 -51 0 0 -132 -139 0 0 132 -51 0 0 -297zm599 0l50 0 0 297 -50 0 0 -297zm-282 0l51 0 0 116 63 0c42,0 74,8 97,24 22,16 33,39 33,67 0,25 -9,46 -28,64 -19,17 -49,26 -90,26l-126 0 0 -297zm51 256l53 0c32,0 54,-4 68,-12 13,-8 20,-20 20,-37 0,-13 -5,-24 -15,-34 -10,-10 -32,-15 -67,-15l-59 0 0 98zm360 -256l51 0 0 227 139 -227 54 0 0 297 -50 0 0 -225 -140 225 -54 0 0 -297zm175 -113l34 0c-2,24 -11,42 -25,54 -14,13 -33,19 -57,19 -24,0 -43,-6 -57,-19 -15,-12 -23,-30 -26,-54l34 0c3,13 8,23 16,29 8,6 18,9 31,9 15,0 27,-3 35,-9 7,-6 12,-15 15,-29zm311 0l54 0 0 362 214 0 0 -362 55 0 0 362 37 0 0 162 -48 0 0 -114 -312 0 0 -410zm621 314l52 7c-9,30 -24,54 -46,70 -22,17 -51,26 -85,26 -44,0 -78,-14 -103,-40 -26,-27 -39,-65 -39,-113 0,-50 13,-89 39,-116 26,-28 59,-42 100,-42 40,0 72,14 97,41 26,27 38,65 38,114 0,3 0,7 0,13l-222 0c2,33 12,58 28,75 17,18 37,26 62,26 19,0 34,-5 48,-14 13,-10 23,-25 31,-47zm-166 -81l166 0c-2,-25 -8,-44 -19,-56 -16,-20 -37,-29 -62,-29 -24,0 -43,7 -59,23 -15,15 -24,36 -26,62zm281 -120l50 0 0 124 140 0 0 -124 50 0 0 297 -50 0 0 -132 -140 0 0 132 -50 0 0 -297zm289 0l241 0 0 42 -95 0 0 255 -50 0 0 -255 -96 0 0 -42zm290 411l0 -411 45 0 0 38c11,-15 23,-26 37,-33 14,-8 30,-12 50,-12 25,0 47,7 67,20 19,13 34,31 44,55 10,24 14,50 14,78 0,31 -5,58 -16,82 -11,25 -27,43 -47,56 -21,13 -43,20 -66,20 -17,0 -32,-4 -45,-11 -14,-7 -24,-16 -33,-27l0 145 -50 0zm45 -261c0,38 8,67 23,85 16,18 35,27 57,27 22,0 41,-9 57,-28 16,-19 24,-48 24,-88 0,-38 -8,-66 -23,-85 -16,-19 -35,-28 -56,-28 -22,0 -41,10 -57,30 -17,20 -25,49 -25,87zm476 -263l250 0 0 362 36 0 0 144 -48 0 0 -96 -271 0 0 96 -48 0 0 -144 31 0c33,-50 50,-151 50,-302l0 -60zm195 48l-143 0 0 21c0,35 -3,83 -9,143 -6,61 -19,111 -37,150l189 0 0 -314zm149 65l51 0 0 227 139 -227 54 0 0 297 -50 0 0 -225 -139 225 -55 0 0 -297zm514 188l50 7c-6,34 -19,60 -42,80 -22,19 -49,29 -82,29 -41,0 -73,-14 -98,-40 -25,-27 -37,-65 -37,-114 0,-32 5,-60 16,-85 10,-24 27,-42 48,-54 22,-12 46,-18 71,-18 33,0 59,8 80,25 20,16 33,39 39,69l-49 8c-5,-20 -13,-35 -25,-45 -12,-10 -26,-15 -43,-15 -25,0 -46,9 -61,27 -16,18 -24,47 -24,86 0,40 7,69 23,87 15,18 35,27 59,27 20,0 37,-6 50,-18 13,-12 22,-31 25,-56zm66 -188l241 0 0 42 -96 0 0 255 -50 0 0 -255 -95 0 0 -42zm477 260c-19,16 -37,27 -54,34 -17,6 -36,10 -56,10 -32,0 -57,-8 -75,-24 -18,-16 -26,-36 -26,-61 0,-15 3,-28 10,-40 6,-12 15,-22 26,-29 10,-7 22,-13 36,-17 10,-2 25,-5 45,-7 40,-5 70,-11 89,-18 1,-6 1,-11 1,-13 0,-20 -5,-35 -15,-43 -12,-11 -32,-17 -57,-17 -24,0 -41,4 -52,12 -12,9 -20,23 -25,44l-50 -6c5,-21 12,-38 23,-51 10,-13 25,-23 44,-30 19,-7 42,-11 67,-11 26,0 46,3 62,9 16,6 28,14 35,23 8,9 13,20 16,34 2,9 2,24 2,46l0 67c0,47 2,77 4,89 2,13 6,25 12,36l-52 0c-6,-10 -9,-23 -10,-37zm-5 -112c-18,7 -45,14 -82,19 -20,3 -35,6 -44,10 -8,4 -15,9 -20,16 -4,8 -7,16 -7,24 0,14 5,25 16,34 10,9 25,13 44,13 20,0 37,-4 52,-12 15,-9 26,-20 33,-35 6,-12 8,-28 8,-51l0 -18zm130 -148l50 0 0 124 140 0 0 -124 50 0 0 297 -50 0 0 -132 -140 0 0 132 -50 0 0 -297zm317 0l50 0 0 256 139 0 0 -256 51 0 0 256 32 0 0 125 -41 0 0 -84 -231 0 0 -297zm327 0l50 0 0 227 140 -227 54 0 0 297 -50 0 0 -225 -140 225 -54 0 0 -297zm301 148c0,-55 16,-95 46,-122 26,-22 57,-33 94,-33 40,0 74,13 100,40 26,27 39,64 39,111 0,39 -6,69 -18,91 -11,21 -28,38 -50,50 -21,13 -46,19 -71,19 -42,0 -76,-14 -101,-40 -26,-27 -39,-65 -39,-116zm52 0c0,39 8,67 25,86 17,19 37,28 63,28 25,0 45,-9 62,-28 17,-19 25,-48 25,-87 0,-37 -8,-65 -25,-84 -17,-19 -38,-28 -62,-28 -26,0 -46,9 -63,28 -17,19 -25,47 -25,85zm286 -148l50 0 0 124 140 0 0 -124 50 0 0 297 -50 0 0 -132 -140 0 0 132 -50 0 0 -297zm316 0l51 0 0 124 139 0 0 -124 51 0 0 297 -51 0 0 -132 -139 0 0 132 -51 0 0 -297zm298 148c0,-55 15,-95 46,-122 25,-22 56,-33 93,-33 41,0 74,13 100,40 26,27 39,64 39,111 0,39 -6,69 -17,91 -12,21 -28,38 -50,50 -22,13 -46,19 -72,19 -42,0 -75,-14 -101,-40 -26,-27 -38,-65 -38,-116zm51 0c0,39 9,67 25,86 17,19 38,28 63,28 25,0 46,-9 62,-28 17,-19 25,-48 25,-87 0,-37 -8,-65 -25,-84 -17,-19 -37,-28 -62,-28 -25,0 -46,9 -63,28 -16,19 -25,47 -25,85zm286 -148l171 0 0 42 -120 0 0 255 -51 0 0 -297zm177 148c0,-55 16,-95 46,-122 26,-22 57,-33 94,-33 41,0 74,13 100,40 26,27 39,64 39,111 0,39 -6,69 -17,91 -12,21 -28,38 -50,50 -22,13 -46,19 -72,19 -42,0 -75,-14 -101,-40 -26,-27 -39,-65 -39,-116zm52 0c0,39 9,67 25,86 17,19 38,28 63,28 25,0 46,-9 62,-28 17,-19 25,-48 25,-87 0,-37 -8,-65 -25,-84 -17,-19 -37,-28 -62,-28 -25,0 -46,9 -63,28 -16,19 -25,47 -25,85zm435 -51c0,-68 18,-121 55,-160 36,-38 84,-57 141,-57 38,0 72,9 103,27 30,18 53,43 69,75 16,33 24,69 24,111 0,41 -8,78 -25,111 -17,33 -41,58 -71,75 -31,17 -64,25 -100,25 -39,0 -73,-9 -103,-28 -31,-19 -54,-44 -69,-76 -16,-33 -24,-67 -24,-103zm56 1c0,50 13,88 40,117 26,28 60,43 100,43 41,0 74,-15 101,-43 26,-29 39,-70 39,-123 0,-33 -6,-62 -17,-87 -11,-25 -27,-44 -49,-58 -22,-14 -46,-21 -74,-21 -38,0 -71,14 -99,40 -27,26 -41,70 -41,132zm617 -221l45 1c-2,20 -7,33 -14,41 -6,8 -15,13 -26,15 -11,3 -32,4 -63,4 -42,0 -70,4 -85,12 -15,8 -26,21 -33,38 -6,18 -10,41 -11,69 13,-19 28,-33 45,-43 17,-9 36,-14 57,-14 39,0 71,13 97,40 25,27 38,63 38,109 0,34 -6,63 -19,85 -13,22 -28,39 -46,51 -17,13 -41,19 -72,19 -35,0 -62,-8 -82,-24 -20,-17 -35,-37 -45,-63 -10,-25 -16,-68 -16,-131 0,-78 14,-131 40,-159 27,-27 68,-40 123,-40 34,0 54,-1 58,-2 5,-1 8,-4 9,-8zm-2 270c0,-31 -8,-56 -22,-76 -15,-20 -35,-29 -62,-29 -28,0 -49,10 -64,31 -15,21 -23,49 -23,84 0,34 8,60 25,79 17,18 37,27 62,27 25,0 45,-10 60,-32 16,-21 24,-49 24,-84zm103 264l0 -411 46 0 0 38c11,-15 23,-26 37,-33 13,-8 30,-12 49,-12 26,0 48,7 67,20 20,13 35,31 44,55 10,24 15,50 15,78 0,31 -5,58 -16,82 -11,25 -27,43 -48,56 -21,13 -42,20 -65,20 -17,0 -32,-4 -46,-11 -13,-7 -24,-16 -32,-27l0 145 -51 0zm46 -261c0,38 8,67 23,85 15,18 34,27 56,27 23,0 42,-9 58,-28 16,-19 24,-48 24,-88 0,-38 -8,-66 -24,-85 -15,-19 -34,-28 -56,-28 -21,0 -40,10 -56,30 -17,20 -25,49 -25,87zm467 110c-19,16 -37,27 -54,34 -17,6 -36,10 -56,10 -32,0 -57,-8 -75,-24 -18,-16 -26,-36 -26,-61 0,-15 3,-28 10,-40 6,-12 15,-22 26,-29 11,-7 23,-13 36,-17 10,-2 25,-5 45,-7 40,-5 70,-11 89,-18 1,-6 1,-11 1,-13 0,-20 -5,-35 -14,-43 -13,-11 -33,-17 -58,-17 -24,0 -41,4 -52,12 -12,9 -20,23 -25,44l-50 -6c5,-21 12,-38 23,-51 10,-13 25,-23 44,-30 19,-7 42,-11 67,-11 26,0 46,3 62,9 16,6 28,14 35,23 8,9 13,20 16,34 2,9 2,24 2,46l0 67c0,47 2,77 4,89 2,13 6,25 12,36l-52 0c-5,-10 -9,-23 -10,-37zm-5 -112c-18,7 -45,14 -82,19 -20,3 -35,6 -44,10 -8,4 -15,9 -20,16 -4,8 -7,16 -7,24 0,14 6,25 16,34 10,9 25,13 44,13 20,0 37,-4 52,-12 15,-9 26,-20 33,-35 6,-12 8,-28 8,-51l0 -18zm189 15l0 -40c21,0 36,-1 43,-2 8,-2 15,-6 22,-14 7,-7 11,-16 11,-28 0,-13 -5,-24 -14,-32 -9,-8 -21,-12 -35,-12 -28,0 -48,16 -60,50l-47 -8c15,-56 51,-84 108,-84 31,0 56,9 74,26 18,18 27,38 27,62 0,25 -12,44 -35,58 15,8 26,19 33,31 8,12 12,27 12,44 0,27 -10,48 -29,65 -20,16 -47,25 -82,25 -68,0 -107,-30 -118,-91l48 -10c4,19 13,34 26,44 13,11 28,16 45,16 17,0 31,-5 42,-14 12,-10 17,-22 17,-37 0,-12 -3,-22 -10,-30 -7,-9 -15,-14 -23,-16 -8,-2 -23,-4 -44,-4 -1,0 -5,1 -11,1zm172 -15c0,-55 15,-95 46,-122 25,-22 56,-33 93,-33 41,0 74,13 100,40 26,27 39,64 39,111 0,39 -6,69 -17,91 -12,21 -28,38 -50,50 -22,13 -46,19 -72,19 -41,0 -75,-14 -101,-40 -25,-27 -38,-65 -38,-116zm52 0c0,39 8,67 24,86 17,19 38,28 63,28 25,0 46,-9 63,-28 16,-19 24,-48 24,-87 0,-37 -8,-65 -25,-84 -16,-19 -37,-28 -62,-28 -25,0 -46,9 -63,28 -16,19 -24,47 -24,85zm286 -148l116 0c28,0 50,2 63,7 14,5 26,14 36,26 10,13 15,28 15,46 0,14 -3,26 -9,37 -6,10 -14,19 -26,26 14,5 25,14 35,26 9,13 13,28 13,46 -1,28 -11,49 -30,63 -18,13 -45,20 -79,20l-134 0 0 -297zm50 125l54 0c21,0 36,-1 44,-3 8,-3 15,-7 21,-14 7,-7 10,-15 10,-24 0,-16 -6,-27 -17,-33 -11,-6 -30,-9 -57,-9l-55 0 0 83zm0 131l66 0c29,0 48,-4 59,-10 10,-7 16,-18 17,-35 0,-9 -3,-18 -9,-26 -7,-8 -15,-13 -24,-15 -10,-3 -26,-4 -48,-4l-61 0 0 90zm441 4c-19,16 -36,27 -54,34 -17,6 -35,10 -55,10 -33,0 -58,-8 -75,-24 -18,-16 -27,-36 -27,-61 0,-15 4,-28 10,-40 7,-12 16,-22 26,-29 11,-7 23,-13 36,-17 10,-2 25,-5 45,-7 41,-5 71,-11 90,-18 0,-6 0,-11 0,-13 0,-20 -4,-35 -14,-43 -13,-11 -32,-17 -57,-17 -24,0 -42,4 -53,12 -11,9 -19,23 -25,44l-49 -6c4,-21 12,-38 22,-51 10,-13 25,-23 45,-30 19,-7 41,-11 67,-11 25,0 46,3 62,9 16,6 27,14 35,23 7,9 12,20 15,34 2,9 3,24 3,46l0 67c0,47 1,77 3,89 2,13 7,25 13,36l-53 0c-5,-10 -8,-23 -10,-37zm-4 -112c-18,7 -46,14 -82,19 -21,3 -35,6 -44,10 -9,4 -15,9 -20,16 -5,8 -7,16 -7,24 0,14 5,25 15,34 10,9 25,13 45,13 19,0 37,-4 52,-12 15,-9 26,-20 33,-35 5,-12 8,-28 8,-51l0 -18zm129 -148l51 0 0 124 139 0 0 -124 51 0 0 297 -51 0 0 -132 -139 0 0 132 -51 0 0 -297zm316 0l51 0 0 227 139 -227 54 0 0 297 -50 0 0 -225 -139 225 -55 0 0 -297zm554 0l0 297 -50 0 0 -116 -29 0c-18,0 -31,3 -40,7 -8,5 -21,19 -37,44l-44 65 -63 0 55 -80c16,-24 33,-38 49,-41 -29,-4 -50,-15 -64,-31 -14,-17 -21,-37 -21,-58 0,-26 9,-47 28,-63 18,-16 44,-24 79,-24l137 0zm-50 42l-72 0c-30,0 -49,4 -57,14 -9,9 -13,20 -13,32 0,18 6,31 19,39 13,9 35,13 67,13l56 0 0 -98z"/>
 </g>
</svg>
