<?xml version="1.0" encoding="UTF-8"?>
<!DOCTYPE svg PUBLIC "-//W3C//DTD SVG 1.1//EN" "http://www.w3.org/Graphics/SVG/1.1/DTD/svg11.dtd">
<!-- Creator: CorelDRAW X8 -->
<svg xmlns="http://www.w3.org/2000/svg" xml:space="preserve" width="560px" height="300px" version="1.1" style="shape-rendering:geometricPrecision; text-rendering:geometricPrecision; image-rendering:optimizeQuality; fill-rule:evenodd; clip-rule:evenodd"
viewBox="0 0 32892 17628"
 xmlns:xlink="http://www.w3.org/1999/xlink">
 <defs>
  <style type="text/css">
   <![CDATA[
    .fil4 {fill:#111A19}
    .fil6 {fill:#282F39}
    .fil1 {fill:#636D76}
    .fil0 {fill:#B70018}
    .fil2 {fill:#D5D9EB}
    .fil5 {fill:#FF4342}
    .fil3 {fill:white}
   ]]>
  </style>
 </defs>
 <g id="Слой_x0020_1">
  <metadata id="CorelCorpID_0Corel-Layer"/>
  <path class="fil0" d="M24241 12651c728,523 -194,1337 -642,748 -96,-126 -120,-376 -69,-485 91,-194 10,-49 121,-117 49,261 45,670 437,576 340,-82 156,-483 153,-722zm-10016 -4292l-38 15 -1062 -4298 8623 1055c-78,145 -534,580 -669,721l-3086 3246c-311,326 -1598,1621 -1730,1831 55,126 162,-93 276,74 96,142 -65,263 160,322l1386 -1469c798,-817 2097,-2272 2823,-2961l1433 -1472c121,210 124,602 175,866 58,304 186,690 50,805l115 13 80 610 87 492c43,154 73,278 60,452 96,107 107,419 130,584 93,733 512,2629 518,3107 -290,262 -539,578 -349,1052 350,870 1652,639 1653,-309 1,-488 -307,-728 -693,-842 -110,-456 -203,-1093 -280,-1555 -59,-352 -270,-1327 -246,-1600 -55,-70 -17,34 -56,-125 -16,-66 -26,-172 -35,-240l-55 -456c-74,-90 -63,-176 -85,-320 -21,-146 -40,-213 -26,-366 -94,-86 -136,-553 -132,-671 -100,-251 -231,-1185 -292,-1548 -92,-544 -190,-1056 -277,-1599 -118,-9 -213,-19 -328,-37 -194,-31 -267,-81 -260,90l134 759c-380,-19 -811,-100 -1147,-143 -2674,-341 -5448,-628 -8103,-981l-250 -908 -614 -70c274,1111 424,1174 114,1479l-1679 1837c-248,281 -240,349 -397,304 36,57 24,22 32,111 -87,81 -144,145 -228,243 -84,98 -117,165 -212,175 -58,160 -172,268 -311,368l-1382 1539c-190,210 -1280,1448 -1400,1494 -64,152 -1,75 -140,145 58,219 28,70 169,202 86,79 120,120 136,243l147 10c114,-212 237,-307 523,-297 267,10 495,44 770,54 -122,-44 -315,-41 -459,-48 -89,-4 -183,-6 -270,-14 -32,-3 -110,-14 -133,-23 -92,-34 -55,-15 -110,-70 139,-105 60,-106 262,-134l-78 -39 1788 -1960c120,-135 473,-558 600,-645 50,-82 95,-129 159,-200 14,-15 54,-62 75,-81 74,-61 28,-44 125,-68 49,-148 330,-441 440,-494 75,-247 1711,-1816 1909,-2162 131,160 551,2008 629,2348 86,378 591,2167 571,2434 18,18 38,55 61,101l150 629 -2 3 138 559 11 138c128,166 204,-125 322,-209 211,40 22,18 158,61 150,48 55,41 120,5l-154 -620 -344 -1542z"/>
  <path class="fil1" d="M32560 16349c-8,-8 -19,-17 -26,-22 -7,-4 -18,-15 -27,-20 -174,-108 152,68 -57,-32 -37,-18 -56,-21 -90,-32 -323,-109 -401,-87 -664,-149 -665,-82 -1375,-237 -2083,-273l-1 -115c-131,98 -36,35 -76,197 -76,314 -86,-5 -238,458 -235,87 -549,29 -806,44l62 -145c-215,140 71,131 -307,143 -114,4 -272,-4 -384,-18 58,-110 155,-211 246,-337 47,-65 67,-87 116,-162 13,-18 42,-67 50,-89 24,-62 21,0 7,-59 -126,-26 -322,0 -426,-77 -244,53 -335,-59 -471,96 -398,450 -422,644 -909,624l103 -104c29,-26 55,-46 85,-71 150,-128 427,-373 497,-539 -1441,-68 -4083,-83 -5575,32 -403,31 -1435,148 -1754,103 -23,35 -24,55 -58,94 70,54 317,381 367,506 -199,-5 -420,3 -601,-23l-795 6c-108,-183 -49,-245 -286,-413 -67,46 -865,181 -1026,229 -989,292 -1004,527 -140,809 2342,765 9101,677 11693,486 519,-38 1173,-162 1680,-166 163,-23 269,-32 410,-58 127,-23 211,49 319,-83 216,11 667,-111 875,-175 232,-72 574,-144 622,-402 -53,-154 -162,-206 -332,-263z"/>
  <path class="fil2" d="M1010 9146c-40,55 -45,131 -115,201l-112 533 -20 156c-358,1856 435,3660 1534,4771 1121,1133 2907,1878 4761,1567l210 -104 -210 104c185,-16 652,-81 756,-202 228,29 815,-280 1055,-410 770,-416 1412,-1011 1911,-1720 85,-120 205,-275 262,-453l-478 -166c-50,270 -374,626 -530,811 -567,673 -1411,1204 -2288,1492l-1 -19c-32,18 -66,36 -102,53l0 0c-95,24 -208,47 -295,88 -152,70 -275,99 -384,107 -53,-1 -110,-1 -169,1 -164,-10 -316,-40 -527,13l0 0c-37,-1 -74,-3 -110,-6l0 3c-2382,-77 -4312,-1677 -4818,-3723 -136,-553 -294,-2001 -17,-2515 -108,-159 -114,-27 -252,-73 -5,-255 18,-84 226,-247 159,-125 254,-431 -92,-302 -244,90 -96,97 -195,40zm5940 6810c-22,2 -43,3 -64,3 21,0 42,-1 64,-3zm817 -891c30,-91 87,-156 194,-208 46,-23 105,-46 158,-70 417,-191 807,-483 1132,-789l433 -506c126,-172 95,-215 169,-263 -89,-86 -177,-100 -332,-132 90,122 -32,48 151,115 -133,-10 -86,11 -159,107l-435 505c-227,234 -405,357 -703,550 -299,193 -585,268 -847,289 -69,92 -109,218 72,363 49,39 109,41 167,39z"/>
  <path class="fil3" d="M13326 9657c97,69 263,303 287,468 -446,338 -444,223 -622,-163 -26,-55 -78,-13 -12,-159 60,-133 194,-162 347,-146zm-2670 -3043c69,70 129,93 192,151 85,78 80,124 138,215 74,115 112,98 179,171 78,84 71,134 124,227 146,253 36,-81 277,428 71,151 66,69 152,199 83,126 32,131 88,263 63,150 69,43 138,214 41,104 20,159 73,276 61,136 85,80 115,237 34,174 -13,129 64,294 78,169 55,70 72,286 30,368 76,-13 93,591 4,153 10,207 87,249l560 25c153,-17 422,-15 545,70l559 16 -138 -559 -49 -62c-175,-257 -52,-325 -253,-386 -87,262 274,264 109,502 -150,118 -408,-441 -421,-483 41,-67 134,-128 210,-175 135,-85 136,-20 195,-129 20,-267 -485,-2056 -571,-2434 -78,-340 -498,-2188 -629,-2348 -198,346 -1834,1915 -1909,2162z"/>
  <path class="fil4" d="M23252 6920c-4,118 38,585 132,671 959,-14 1503,-33 2370,258 334,112 612,237 898,390 235,127 597,352 759,509l137 127c294,111 1008,1040 1213,1393 923,1591 1048,3492 258,5167 -124,263 -345,569 -465,825l-62 145c257,-15 571,43 806,-44 152,-463 162,-144 238,-458 40,-162 -55,-99 76,-197 131,-175 88,-80 153,-341 44,-175 117,-179 151,-361 50,-275 50,-175 124,-385 33,-93 42,-291 88,-457 39,-140 15,-79 18,-207 4,-179 10,-116 37,-246 83,-400 -27,-1176 -35,-1435 -9,-300 -43,-221 -75,-431 -42,-277 -242,-960 -355,-1200 -71,-150 -63,-7 -170,-347 -72,-228 -97,-117 -197,-304 -102,-191 -13,-146 -185,-323 -145,-150 -100,-219 -212,-335 -154,-161 -108,-51 -235,-270 -118,-205 -141,-118 -260,-252 -137,-156 -21,-120 -247,-262 -189,-118 -142,-172 -274,-272 -141,-106 -144,-36 -299,-209 -158,-177 -148,-76 -319,-187 -162,-105 -58,-124 -305,-207 -301,-102 -192,-135 -350,-196 -239,-91 4,61 -356,-149 -154,-90 -244,-48 -394,-116 -447,-206 -1626,-356 -2164,-327 -184,11 -256,35 -499,33z"/>
  <path class="fil2" d="M23495 8277l-9 -228c790,72 650,-118 1831,161 541,128 980,395 1418,609l82 64 -11 0c25,38 263,197 323,244 103,83 216,199 311,235l94 72 5 63c159,152 290,280 437,464 1094,1367 1405,3314 741,4972 -101,254 -281,546 -345,744 -207,-10 -319,-68 -516,-16 104,77 300,51 426,77 14,59 17,-3 -7,59 -8,22 -37,71 -50,89 -49,75 -69,97 -116,162 -91,126 -188,227 -246,337 112,14 270,22 384,18 378,-12 92,-3 307,-143 120,-256 341,-562 465,-825 790,-1675 665,-3576 -258,-5167 -205,-353 -919,-1282 -1213,-1393l-137 -127c-162,-157 -524,-382 -759,-509 -286,-153 -564,-278 -898,-390 -867,-291 -1411,-272 -2370,-258 -14,153 5,220 26,366 22,144 11,230 85,320zm2406 930c-120,-24 -346,-139 -467,-181 -442,-153 -1085,-278 -1569,-249 -14,1 -166,12 -166,12 -32,-3 15,55 -149,-56 9,68 19,174 35,240 39,159 1,55 56,125 103,-102 356,-62 615,-55 225,6 437,35 662,78 257,49 832,322 963,302 11,-64 24,-44 24,-161 0,-19 -1,-38 -4,-55z"/>
  <path class="fil2" d="M14723 10521c-65,36 30,43 -120,-5 -136,-43 53,-21 -158,-61 -118,84 -194,375 -322,209l-198 -28 -66 106 -117 13c45,47 92,86 126,114 -152,92 -27,82 -195,86 -139,5 -60,-51 -238,24 -2,380 -3,304 -339,376 -40,250 114,280 -57,404 -150,108 -261,87 -442,90 180,96 311,35 324,347 -142,178 -192,49 -214,310 289,184 55,242 2,471 112,167 164,63 187,236 20,146 -55,110 -51,312 83,62 197,98 282,155l-56 298c149,188 362,-72 356,347l-122 6c63,77 12,37 116,82 31,13 317,56 425,186 22,25 26,43 40,67 6,8 5,120 33,48 3,-6 11,18 18,25 163,-15 140,9 209,-83l6 194c62,-71 24,4 73,-132 19,-52 34,-131 52,-190 43,-147 76,-222 103,-389 -245,-164 -472,-296 -656,-558 -135,-194 -346,-614 -255,-895l308 37c-82,-70 -218,-75 -329,-108 3,-131 56,-494 155,-553 88,-324 374,-574 647,-727l105 143 -25 -178c67,-40 175,-86 287,-111 199,-46 188,-47 312,28l24 -65 262 -2 -4 187 115 -159 265 67c8,177 -26,210 -66,387 192,-84 131,-90 288,-235 148,54 369,229 426,411 458,282 673,2394 -1405,2441l-28 -117c-106,90 -225,603 -251,760l70 -44c240,-108 159,84 341,123 219,47 75,-4 113,-22 82,-37 34,-104 257,-81 151,16 66,62 222,76 114,-135 50,-160 211,-219 161,-60 90,26 318,1 236,-390 -141,-208 443,-292 57,-158 -2,-257 88,-336 100,-87 191,3 278,-106 76,-96 -83,-158 27,-323 45,-67 143,-67 239,-144 -16,-307 -254,-189 44,-445 216,-186 2,-184 -74,-419l162 -231c-69,-155 -118,-109 -222,-234 25,-325 294,-294 -178,-456 -18,-287 158,-376 -195,-415 -225,-59 -64,-180 -160,-322 -114,-167 -221,52 -276,-74 -185,-96 -61,-89 -179,-282 -182,-5 -131,-37 -188,69l-34 -95c-93,68 -32,25 -152,77 -66,-176 -169,-233 -161,-367 -145,58 -98,409 -409,159 -113,-90 -85,-160 -226,-51 -169,130 -42,112 -191,82z"/>
  <path class="fil4" d="M18459 15972c237,168 178,230 286,413l795 -6c-52,-135 -254,-394 -348,-564 -1325,-2388 -784,-5185 1242,-6936 498,-431 1524,-1052 2327,-1162l-80 -610 -115 -13c-221,37 -195,-18 -396,82 -181,90 -223,42 -371,106 -131,57 -131,117 -291,159 -271,70 -120,3 -302,141 -142,106 -191,55 -326,143 -103,67 -93,122 -241,185 -239,103 -105,19 -281,191 -123,121 -150,77 -266,166 -123,95 -77,141 -228,239 -161,103 -122,32 -231,200 -127,194 -89,95 -242,227 -125,109 -72,146 -175,257 -98,107 -139,69 -224,246 -96,200 -18,107 -172,255 -164,157 -65,139 -163,310 -62,109 -127,107 -177,251 -79,226 -5,124 -150,319l-238 716c-29,180 -78,141 -117,299l-164 1126c28,246 -30,213 -29,382 3,305 86,740 89,784 9,162 82,673 128,781 89,211 51,159 102,367 44,183 89,116 134,301 128,526 247,279 224,645z"/>
  <path class="fil4" d="M783 9880l112 -533c70,-70 75,-146 115,-201l9 -164c28,-41 6,-27 46,-31l49 -198c99,-65 19,20 86,-106 27,-52 26,-68 45,-119l-11 -55c63,-57 23,-7 73,-103 13,-23 35,-84 50,-115 42,-84 66,-109 121,-205 411,-625 941,-1265 1546,-1638 55,-23 47,-4 103,-46 -10,-75 39,-56 94,-66 8,-7 22,-26 26,-19 5,9 29,-19 50,-37 65,-53 -9,28 66,-59l353 -175c3,-6 7,-24 9,-18 2,6 11,-14 14,-15 87,-37 -65,-5 76,-16 57,-105 208,-130 326,-174 1724,-632 3439,-539 5017,442 218,136 386,295 587,403 95,-10 128,-77 212,-175 84,-98 141,-162 228,-243 -8,-89 4,-54 -32,-111 -142,-100 -152,-46 -285,-194 -165,-183 -53,-73 -284,-186 -292,-143 57,-72 -443,-260 -110,-42 -78,-45 -167,-110 -154,-114 -181,-57 -339,-129 -172,-79 -80,-99 -328,-147l-743 -224c-153,-62 -659,-78 -853,-99 -184,-20 -102,-64 -371,-32 -225,28 -250,-41 -435,-7 -187,35 -196,21 -411,38 -170,13 -204,49 -430,63l-750 216c-151,67 -199,8 -366,105 -183,106 -105,70 -329,138 -186,56 -143,116 -292,180 -244,103 -117,-13 -330,177 -129,115 -185,83 -305,165 -115,77 -93,134 -247,218 -208,113 -117,34 -264,209 -115,137 -184,113 -283,222 -123,134 -21,114 -217,251 -192,135 -90,62 -214,261 -85,137 -151,113 -230,239 -109,174 -30,131 -201,306l-350 591c-79,243 -54,143 -155,311 -65,108 -69,245 -118,386 -168,80 -89,172 -121,352 -35,203 -100,125 -134,352 57,376 -68,293 -90,523 -5,143 -7,184 -34,324 -9,45 -23,71 -19,134 16,200 4,60 43,121 -16,135 -52,165 -57,274 -8,150 36,144 42,274 8,150 -36,143 -15,294 18,128 42,129 47,288 10,310 67,268 97,586 20,216 35,120 91,264 51,131 19,150 49,273 30,122 67,103 118,232 46,115 27,174 75,275 58,123 82,84 134,214 40,99 25,139 79,233 59,105 100,99 151,204 53,108 33,150 108,245 86,111 87,51 168,183 38,63 61,146 107,205 83,108 90,51 178,172 75,101 53,136 133,219 76,80 124,73 198,154 75,81 62,117 128,186 87,93 109,58 210,140 104,85 76,107 164,190 112,106 102,49 221,130 211,142 -113,5 391,278 144,77 80,83 193,158 99,67 138,49 248,101 119,56 99,81 186,130 132,75 163,37 275,81 57,23 143,109 211,133 122,45 172,11 293,61 66,28 124,84 209,104 144,33 155,-4 298,49 220,82 614,145 863,147 156,2 200,39 315,43l898 -37c213,1 142,-20 289,-58 151,-38 182,1 325,-28 177,-36 80,-62 250,-91 135,-24 150,7 279,-43 117,-46 62,-70 234,-106 175,-38 118,14 280,-86 77,-47 749,-315 908,-459 7,-7 689,-435 797,-571 93,-118 46,-86 184,-168 151,-89 506,-496 512,-505 80,-132 33,-100 148,-204 252,-228 125,-219 275,-389 358,-403 127,-333 405,-559l1555 518 122 -6c6,-419 -207,-159 -356,-347 -164,-24 -1180,-357 -1264,-416 63,-125 94,-89 140,-242 61,-198 -6,-139 105,-312 111,-173 54,-64 92,-302 33,-200 70,-132 118,-301l-694 -125c-30,214 -217,781 -349,989l-57 80c-90,-10 -178,-28 -244,-51 -48,-16 -44,-13 -84,-34 -126,-65 -42,-14 -97,-67 -151,9 -571,-134 -716,-205 -66,-14 -147,-32 -196,-49 -34,-12 -55,-20 -82,-36 -73,-43 -11,7 -68,-61 -218,24 -2911,-922 -3299,-1039 -127,-27 -114,-22 -231,-33l-182 -35c-185,-45 -209,-40 -352,-168l-213 -249c-4,-8 -9,-18 -13,-27 -154,-341 -41,-774 257,-984 7,-5 17,-11 24,-16 462,-301 939,25 846,-117 139,-70 76,7 140,-145 -355,-7 -732,-83 -1031,99 -563,341 -957,1346 517,1855 1121,387 2283,709 3383,1110 155,32 243,46 332,132 203,1 502,137 711,194l478 166c-58,178 -177,333 -262,453 -499,709 -1141,1304 -1911,1720 -240,130 -827,439 -1055,410 -104,121 -571,186 -756,202 -1854,311 -3640,-434 -4761,-1567 -1099,-1111 -1892,-2915 -1534,-4771l20 -156z"/>
  <path class="fil4" d="M11162 1607c136,3 1427,38 1555,127 448,-98 1101,96 1571,39 467,-57 679,-654 320,-997 -258,-247 -885,-235 -1301,-285 -474,-58 -1021,-152 -1480,-176l-33 -50c-207,-282 -310,-84 -319,-79 -139,81 67,32 -117,74 -140,-162 -109,-272 -341,-137 -110,64 87,28 -129,73 -252,-298 -203,-212 -423,-33 -114,93 -468,124 -451,738 20,716 508,683 1148,706z"/>
  <path class="fil2" d="M19540 16379c181,26 402,18 601,23 -50,-125 -297,-452 -367,-506 34,-39 35,-59 58,-94 -168,-44 -146,-68 -221,-212 -247,-469 -408,-888 -546,-1408 -286,-1085 -60,-2346 369,-3253 481,-1014 1291,-1834 2300,-2350 216,-110 902,-413 1114,-370l-87 -492c-803,110 -1829,731 -2327,1162 -2026,1751 -2567,4548 -1242,6936 94,170 296,429 348,564z"/>
  <path class="fil4" d="M12877 10678c-183,42 -129,-43 -134,-46 106,-66 65,-155 213,-39 -23,51 43,57 -79,85zm-2661 -3570c317,248 802,1003 989,1408 184,398 564,1333 498,1862 -114,-1 -193,-14 -307,-22l-316 -49c-222,48 -1448,-65 -1746,-100 -555,-65 -1220,-72 -1787,-106 -202,28 -123,29 -262,134 55,55 18,36 110,70 23,9 101,20 133,23 87,8 181,10 270,14 144,7 337,4 459,48l2084 130c227,6 447,27 663,40 883,53 532,-177 899,308 90,118 224,216 140,327 -132,-52 -128,-153 -265,-250 -25,198 36,233 -3,417 -18,84 -59,185 -83,317 186,54 466,136 685,116 -47,-211 11,-181 32,-351 16,-132 -21,-155 -17,-304 169,-93 38,-67 121,-391 218,-93 94,12 423,-12 4,0 16,-1 21,-1 18,0 258,68 473,27l-156 -58c-44,-6 -132,-7 -182,-11l-28 -202 489 18c-123,-85 -392,-87 -545,-70l-560 -25c-77,-42 -83,-96 -87,-249 -17,-604 -63,-223 -93,-591 -17,-216 6,-117 -72,-286 -77,-165 -30,-120 -64,-294 -30,-157 -54,-101 -115,-237 -53,-117 -32,-172 -73,-276 -69,-171 -75,-64 -138,-214 -56,-132 -5,-137 -88,-263 -86,-130 -81,-48 -152,-199 -241,-509 -131,-175 -277,-428 -53,-93 -46,-143 -124,-227 -67,-73 -105,-56 -179,-171 -58,-91 -53,-137 -138,-215 -63,-58 -123,-81 -192,-151 -110,53 -391,346 -440,494z"/>
  <path class="fil0" d="M6979 11421l4090 763 499 96 694 125 445 101c22,-261 72,-132 214,-310 -13,-312 -144,-251 -324,-347 -129,1 -119,13 -220,-54 -219,20 -499,-62 -685,-116 -141,-4 -209,-18 -329,-41 -119,-23 -185,-9 -263,-85 -331,29 -1515,-272 -1931,-337 -634,-98 -1284,-244 -1916,-364l-307 -39 -26 217c-7,71 -5,41 -12,75l-85 267 156 49z"/>
  <path class="fil2" d="M3024 6412c-605,373 -1135,1013 -1546,1638 -55,96 -79,121 -121,205 -15,31 -37,92 -50,115 -50,96 -10,46 -73,103l11 55c-19,51 -18,67 -45,119 -67,126 13,41 -86,106l-49 198c-40,4 -18,-10 -46,31l-9 164c99,57 -49,50 195,-40 346,-129 251,177 92,302 -208,163 -231,-8 -226,247 138,47 144,-86 252,73 8,-7 20,-16 26,-21 734,-584 257,-567 292,-923 173,54 60,106 301,204 -412,-297 -247,-560 -55,-421 58,42 20,72 120,116 135,59 100,0 175,-2 210,-6 27,-55 194,74 -36,307 -86,-95 -64,240l2 54c-18,156 -253,424 -192,757 281,8 175,-162 453,-724 830,-1681 2825,-2584 4659,-2111 261,67 712,291 905,247 28,-228 -238,-310 -602,-416 -329,-97 -593,-141 -927,-181 -957,-116 -1821,132 -2579,588 -290,174 -206,-65 -319,248 -90,254 -131,316 -379,362 -172,32 -92,-35 -224,71 -187,148 21,365 -368,519 -137,54 -161,168 -281,393l-188 -182c-145,22 -52,55 -268,63 -148,-169 -231,-212 -111,-392l114 -160c-143,-345 -172,-337 126,-574 53,59 79,98 134,118 -154,101 -173,49 -196,274 276,-68 136,-169 416,-441 62,-60 99,-99 174,-159 7,-303 96,-564 411,-567l198 18c92,-5 132,12 102,-141l-245 -293c-56,42 -48,23 -103,46z"/>
  <path class="fil2" d="M3999 6388c297,-117 467,-263 1192,-428 1026,-234 2174,-66 3109,346 636,280 710,445 1134,694 139,-100 253,-208 311,-368 -201,-108 -369,-267 -587,-403 -1578,-981 -3293,-1074 -5017,-442 -78,29 -170,49 -240,90l-835 469 -958 977 -528 879 61 582 333 -607 271 -385 416 -443 346 -319 375 -290 617 -352z"/>
  <path class="fil0" d="M25381 2251c603,104 535,1421 -404,1316 -314,-35 -855,-216 -1025,80 -96,169 -43,354 74,455 115,99 386,111 518,128 710,92 1370,46 1774,-684 163,-295 220,-699 121,-1079 -98,-370 -280,-495 -512,-756 -105,86 -24,-34 -101,223 -93,313 -286,176 -445,317z"/>
  <path class="fil0" d="M14355 11478l123 522c-141,150 -139,200 -418,152 -145,-25 -313,-64 -457,-90 -99,59 -152,422 -155,553 111,33 247,38 329,108l349 31c69,309 200,572 477,691l109 -355c-462,-244 -150,-1033 424,-884 498,131 507,860 -69,996l-121 367c1279,-198 808,-1216 837,-1295l456 -466c-57,-182 -278,-357 -426,-411 -157,145 -96,151 -288,235 -26,71 -76,157 -129,194 -46,31 -24,85 -164,35 -165,-58 -51,49 -109,-117 -71,69 -3,11 -84,59l-110 -586c-124,-75 -113,-74 -312,-28 -112,25 -220,71 -287,111l25 178z"/>
  <path class="fil3" d="M10564 13423c-209,-57 -508,-193 -711,-194 -74,48 -43,91 -169,263l-433 506c-325,306 -715,598 -1132,789 -53,24 -112,47 -158,70 -276,133 -219,358 -215,869 877,-288 1721,-819 2288,-1492 156,-185 480,-541 530,-811z"/>
  <path class="fil2" d="M22095 3826c-7,-171 66,-121 260,-90 115,18 210,28 328,37l-338 -1972 1066 85 56 -554c-196,-91 -838,-127 -1124,-159 -454,-52 -735,-73 -627,470 73,369 117,698 185,1051 32,166 64,358 91,550l103 582z"/>
  <path class="fil3" d="M23495 8277l55 456c164,111 117,53 149,56 0,0 152,-11 166,-12 484,-29 1127,96 1569,249 127,44 367,167 482,184 34,-291 -51,-329 251,-335 164,-4 427,40 568,-56 -438,-214 -877,-481 -1418,-609 -1181,-279 -1041,-89 -1831,-161l9 228z"/>
  <path class="fil2" d="M24704 1353c20,111 484,102 593,108 -65,132 -304,330 -86,600 93,115 167,75 82,119 41,88 -69,78 88,71 159,-141 352,-4 445,-317 77,-257 -4,-137 101,-223 -42,-82 29,-19 -64,-107 89,-67 90,-78 152,-154 324,141 697,641 771,1094 93,566 -252,1265 236,1105 270,-89 304,-1207 -102,-1855 -190,-303 -648,-832 -1074,-833 -108,152 -228,349 -378,508 -167,-18 -544,-142 -764,-116z"/>
  <path class="fil2" d="M9857 7457c140,61 36,-8 153,107 39,38 93,108 124,147 74,94 169,220 235,312 381,534 667,1202 806,1846 28,129 -1,367 113,412l-208 26 316 49c114,8 193,21 307,22 66,-529 -314,-1464 -498,-1862 -187,-405 -672,-1160 -989,-1408 -97,24 -51,7 -125,68 -21,19 -61,66 -75,81 -64,71 -109,118 -159,200z"/>
  <path class="fil4" d="M14712 13090l-109 355 -223 694c-27,167 -60,242 -103,389 -18,59 -33,138 -52,190 -49,136 -11,61 -73,132 0,200 -135,481 -178,705 68,38 79,58 201,59 225,2 77,37 175,-65l205 -657c26,-157 145,-670 251,-760 -26,-155 78,-403 140,-563l121 -367c35,-338 124,-207 202,-416 137,-368 -449,-540 -541,-189 -42,161 10,153 22,272 11,116 -6,96 -38,221z"/>
  <path class="fil0" d="M23467 1332l-56 554c3,109 335,91 433,105 147,21 317,50 456,67 324,39 703,109 993,122 85,-44 11,-4 -82,-119 -218,-270 21,-468 86,-600 -109,-6 -573,3 -593,-108 -200,31 -1202,-214 -1237,-21z"/>
  <path class="fil3" d="M13071 13978l56 -298c-85,-57 -199,-93 -282,-155 -4,-202 71,-166 51,-312 -23,-173 -75,-69 -187,-236 53,-229 287,-287 -2,-471l-445 -101c-48,169 -85,101 -118,301 -38,238 19,129 -92,302 -111,173 -44,114 -105,312 -46,153 -77,117 -140,242 84,59 1100,392 1264,416z"/>
  <path class="fil2" d="M5921 10437c712,-291 1031,799 411,1037 -710,273 -1104,-754 -411,-1037zm455 1370c-35,-87 40,-164 -172,-100 224,-1 261,1 421,-140l123 -110c94,-51 114,-30 231,-36l-156 -49 85 -267c7,-34 5,-4 12,-75l26 -217 307 39c-92,-81 -255,-101 -382,-117 151,-78 36,-5 93,-102l-147 -10c-16,-123 -50,-164 -136,-243 -141,-132 -111,17 -169,-202 93,142 -384,-184 -846,117 -7,5 -17,11 -24,16 -298,210 -411,643 -257,984 4,9 9,19 13,27l213 249c143,128 167,123 352,168l182 35c117,11 104,6 231,33z"/>
  <path class="fil2" d="M23038 9245c-23,-165 -34,-477 -130,-584l-2 270c-771,158 -1472,631 -1946,1102 -372,368 -1185,1514 -1055,1941 239,51 233,-153 312,-375 365,-1029 1183,-1805 2200,-2260 92,-40 149,-67 250,-98l255 -104c29,29 71,69 116,108z"/>
  <path class="fil0" d="M14350 15549c-98,102 50,67 -175,65 -122,-1 -133,-21 -201,-59 -511,112 -487,438 -333,611 128,146 1235,334 1443,146 104,-92 143,-261 77,-417 -157,-370 -736,-83 -811,-346z"/>
  <path class="fil3" d="M12392 11140c-4,149 33,172 17,304 -21,170 -79,140 -32,351 101,67 91,55 220,54 181,-3 292,18 442,-90 171,-124 17,-154 57,-404 336,-72 337,4 339,-376 178,-75 99,-19 238,-24 168,-4 43,6 195,-86 -34,-28 -81,-67 -126,-114l-312 8c-215,41 -455,-27 -473,-27 -5,0 -17,1 -21,1 -329,24 -205,-81 -423,12 -83,324 48,298 -121,391z"/>
  <path class="fil0" d="M15698 9715c81,-78 101,-240 186,-368 380,0 258,198 194,464 129,-49 279,-58 358,-196 77,-132 46,-331 -41,-423 -133,-143 -684,-171 -899,-198 -164,-22 -368,-62 -506,35 -70,48 -566,678 708,686z"/>
  <path class="fil2" d="M11100 11553c78,76 144,62 263,85 120,23 188,37 329,41 24,-132 65,-233 83,-317 39,-184 -22,-219 3,-417 137,97 133,198 265,250 84,-111 -50,-209 -140,-327 -367,-485 -16,-255 -899,-308 -216,-13 -436,-34 -663,-40 173,134 1008,151 1201,151l-263 -1c-64,209 -3,89 -102,210 -282,344 13,293 70,651l-147 22z"/>
  <path class="fil5" d="M6300 11231c-968,78 -263,-952 63,-451 117,180 -4,334 -63,451zm-379 -794c-693,283 -299,1310 411,1037 620,-238 301,-1328 -411,-1037z"/>
  <path class="fil2" d="M12115 2483l614 70c-15,-179 -54,-279 -92,-431 -36,-144 -24,-324 -161,-363l241 -25c-128,-89 -1419,-124 -1555,-127l758 113c51,247 169,524 195,763z"/>
  <path class="fil2" d="M10737 13197c55,53 -29,2 97,67 40,21 36,18 84,34 66,23 154,41 244,51l57 -80c132,-208 319,-775 349,-989l-499 -96c36,57 -70,103 67,64 -77,67 -62,71 -113,231 -27,86 -53,180 -90,274 -63,159 -240,415 -106,416l-90 28z"/>
  <path class="fil2" d="M14712 13090c32,-125 49,-105 38,-221 -12,-119 -64,-111 -22,-272 92,-351 678,-179 541,189 -78,209 -167,78 -202,416 576,-136 567,-865 69,-996 -574,-149 -886,640 -424,884z"/>
  <path class="fil3" d="M13603 12062c144,26 312,65 457,90 279,48 277,-2 418,-152l-123 -522 -105 -143c-273,153 -559,403 -647,727z"/>
  <path class="fil4" d="M15698 9715c10,208 -111,415 -149,616 -8,134 95,191 161,367 120,-52 59,-9 152,-77 -10,-109 157,-684 216,-810 64,-266 186,-464 -194,-464 -85,128 -105,290 -186,368z"/>
  <path class="fil2" d="M23599 13399c448,589 1370,-225 642,-748 3,239 187,640 -153,722 -392,94 -388,-315 -437,-576 -111,68 -30,-77 -121,117 -51,109 -27,359 69,485z"/>
  <path class="fil2" d="M6300 11231c59,-117 180,-271 63,-451 -326,-501 -1031,529 -63,451z"/>
  <path class="fil4" d="M15211 11337l-88 407c58,166 -56,59 109,117 140,50 118,-4 164,-35 53,-37 103,-123 129,-194 40,-177 74,-210 66,-387l-265 -67 -115 159z"/>
  <path class="fil4" d="M13430 10763l312 -8 117 -13 66 -106 198 28 -11 -138 -559 -16 -489 -18 28 202c50,4 138,5 182,11l156 58z"/>
  <path class="fil2" d="M9675 12846c57,68 -5,18 68,61 27,16 48,24 82,36 49,17 130,35 196,49 62,-236 303,-492 226,-751 -302,-31 -212,246 -390,526 -76,120 -19,116 -182,79z"/>
  <path class="fil2" d="M3363 6185c-75,87 -1,6 -66,59 -21,18 -45,46 -50,37 -4,-7 -18,12 -26,19 262,127 117,276 453,299 38,-297 -25,-368 42,-589l-353 175z"/>
  <path class="fil3" d="M14929 11217l110 586c81,-48 13,10 84,-59l88 -407 4 -187 -262 2 -24 65z"/>
  <path class="fil6" d="M12743 10632c5,3 -49,88 134,46 122,-28 56,-34 79,-85 -148,-116 -107,-27 -213,39z"/>
 </g>
</svg>
