<?xml version="1.0" encoding="UTF-8"?>
<!DOCTYPE svg PUBLIC "-//W3C//DTD SVG 1.1//EN" "http://www.w3.org/Graphics/SVG/1.1/DTD/svg11.dtd">
<!-- Creator: CorelDRAW X8 -->
<svg xmlns="http://www.w3.org/2000/svg" xml:space="preserve" width="110px" height="111px" version="1.1" style="shape-rendering:geometricPrecision; text-rendering:geometricPrecision; image-rendering:optimizeQuality; fill-rule:evenodd; clip-rule:evenodd"
viewBox="0 0 11192 11300"
 xmlns:xlink="http://www.w3.org/1999/xlink">
 <defs>
  <style type="text/css">
   <![CDATA[
    .fil0 {fill:maroon}
    .fil1 {fill:#B70018}
    .fil2 {fill:white}
   ]]>
  </style>
 </defs>
 <g id="Слой_x0020_1">
  <metadata id="CorelCorpID_0Corel-Layer"/>
  <rect class="fil0" x="684" y="791" width="10508" height="10508"/>
  <rect class="fil1" width="10508" height="10508"/>
  <path class="fil2" d="M5450 4927c-104,103 -153,1 -155,0 -104,-104 -1,-154 0,-155 39,-21 -51,-21 78,-30 137,-8 42,11 77,30 103,103 2,152 0,155zm-1010 3144c-57,-322 408,-370 456,-94 53,312 -408,361 -456,94zm3524 -705c-57,-321 408,-370 455,-93 54,312 -408,360 -455,93zm-2113 0c-62,-323 405,-366 454,-93 56,312 -404,358 -454,93zm-3525 0c-57,-321 408,-370 456,-93 53,312 -409,360 -456,93zm1738 -3104l2601 -16 16 1895 -2601 16 -16 -1895zm4003 760c254,-193 493,205 262,367 -221,155 -542,-155 -262,-367zm-5637 0c257,-195 489,204 260,366 -183,128 -423,-45 -358,-257 28,-94 58,-80 98,-109zm2590 -995c0,-413 -145,-1172 352,-1172 496,0 353,746 353,1171l-705 1zm3047 -1589c254,-192 493,204 262,367 -186,131 -421,-51 -359,-257 28,-94 58,-81 97,-110zm-5637 0c257,-196 490,204 260,366 -222,156 -542,-153 -260,-366zm2120 1589c0,-310 -42,-915 76,-1166 299,-640 1202,-632 1493,1 119,261 76,844 77,1165l-236 0c0,-486 158,-1415 -586,-1409 -751,7 -590,896 -588,1409l-236 0zm-1874 -965c548,-150 401,-947 -157,-912 -338,22 -752,557 -85,937l15 900c644,562 202,512 1397,510l0 588 -823 -8c-88,-118 -64,-146 -184,-245 -292,-239 -766,-23 -753,386 13,393 480,596 771,336 108,-97 83,-122 166,-234l821 -1 2 588c-1197,-1 -750,-55 -1404,509l-9 430c-695,420 -220,938 121,938 533,-1 653,-768 121,-913l-2 -277c39,-108 343,-412 451,-451l722 -2c4,303 5,233 706,235l-9 1197c-526,142 -412,912 125,916 536,3 651,-771 119,-913l-2 -1200 1176 0 -7 495c-527,143 -414,913 123,913 533,-1 655,-771 119,-913l-2 -495c711,-6 703,61 705,-233l722 -2c110,41 412,344 451,453l-4 277c-546,149 -397,949 158,913 301,-20 779,-521 86,-937l-15 -432c-655,-563 -193,-508 -1398,-508l0 -588 789 0c103,25 156,399 572,346 217,-28 410,-235 399,-479 -19,-411 -491,-589 -771,-338 -306,275 174,238 -987,234l-2 -585c1195,0 749,58 1407,-510l6 -901c685,-413 231,-936 -121,-937 -530,0 -656,769 -118,913l3 786 -422 414 -755 0c-4,-356 -148,-204 -461,-243 -59,-467 92,-935 -143,-1335 -161,-272 -470,-536 -922,-536 -457,0 -775,270 -935,557 -214,384 -76,870 -131,1314 -100,12 -273,-7 -347,9 -157,34 -90,77 -131,230l-705 4c-108,-41 -411,-346 -454,-453l6 -747zm2816 2136c124,-99 266,-154 225,-416 -96,-619 -1180,-103 -463,415 3,318 -63,705 119,705 180,0 115,-378 119,-704z"/>
 </g>
</svg>
