<?xml version="1.0" encoding="UTF-8"?>
<!DOCTYPE svg PUBLIC "-//W3C//DTD SVG 1.1//EN" "http://www.w3.org/Graphics/SVG/1.1/DTD/svg11.dtd">
<!-- Creator: CorelDRAW X8 -->
<svg xmlns="http://www.w3.org/2000/svg" xml:space="preserve" width="110px" height="111px" version="1.1" style="shape-rendering:geometricPrecision; text-rendering:geometricPrecision; image-rendering:optimizeQuality; fill-rule:evenodd; clip-rule:evenodd"
viewBox="0 0 2093 2113"
 xmlns:xlink="http://www.w3.org/1999/xlink">
 <defs>
  <style type="text/css">
   <![CDATA[
    .fil0 {fill:maroon}
    .fil1 {fill:#B70018}
    .fil2 {fill:white}
   ]]>
  </style>
 </defs>
 <g id="Слой_x0020_1">
  <metadata id="CorelCorpID_0Corel-Layer"/>
  <rect class="fil0" x="128" y="148" width="1965" height="1965"/>
  <rect class="fil1" width="1965" height="1965"/>
  <g id="_2338877177888">
   <g>
    <path class="fil2" d="M1746 1623l-50 0 0 -644 50 0c9,0 17,-5 21,-12 4,-8 3,-17 -1,-24l-173 -271c-4,-6 -11,-10 -19,-10l-459 0 -110 -110 0 -91 224 0c8,0 16,-4 20,-12 4,-7 4,-17 -1,-24l-41 -61 41 -61c5,-7 5,-16 1,-24 -4,-7 -12,-12 -20,-12l-224 0 0 -26c0,-13 -10,-23 -23,-23 -12,0 -23,10 -23,23l0 311 -109 110 -459 0c-8,0 -15,4 -20,10l-172 271c-5,7 -5,16 -1,24 4,7 12,12 20,12l51 0 0 644 -51 0c-12,0 -23,10 -23,23 0,13 11,23 23,23l1528 0c13,0 23,-10 23,-23 0,-13 -10,-23 -23,-23zm-185 -915l143 225 -318 0 -225 -225 400 0zm-375 -395l-26 38c-5,8 -5,18 0,26l26 38 -181 0 0 -102 181 0zm-782 395l399 0 -225 225 -318 0 144 -225zm-89 271l273 0c1,0 2,0 2,0 1,0 1,0 1,0 1,-1 1,-1 2,-1 0,0 0,0 1,0 0,0 0,0 1,0 0,0 0,0 1,-1 0,0 1,0 1,0 0,0 1,0 1,0 0,-1 1,-1 1,-1 0,0 1,0 1,0 0,-1 1,-1 1,-1 0,0 1,-1 1,-1 0,0 0,0 1,0 0,-1 1,-1 1,-2l378 -378 378 378c1,1 1,1 2,2 0,0 1,0 1,0 0,0 1,1 1,1 0,0 1,0 1,1 0,0 0,0 1,0 0,0 0,0 1,1 0,0 1,0 1,0 0,0 1,0 1,0 0,1 1,1 1,1 0,0 1,0 1,0 0,0 1,0 1,0 1,0 1,0 1,1 1,0 1,0 1,0 1,0 2,0 3,0l272 0 0 644 -496 0 0 -322c0,-40 -32,-73 -72,-73l-197 0c-40,0 -73,33 -73,73l0 322 -496 0 0 -644zm792 348l-249 0 0 -26c0,-15 11,-26 26,-26l197 0c14,0 26,11 26,26l0 26zm-249 46l101 0 0 250 -101 0 0 -250zm147 0l102 0 0 250 -102 0 0 -250z"/>
    <path class="fil2" d="M982 1151c95,0 171,-76 171,-171 0,-94 -76,-171 -171,-171 -94,0 -171,77 -171,171 0,95 77,171 171,171zm0 -295c69,0 125,56 125,124 0,69 -56,125 -125,125 -68,0 -124,-56 -124,-125 0,-68 56,-124 124,-124z"/>
    <path class="fil2" d="M982 1003c13,0 23,-10 23,-23l0 -74c0,-12 -10,-23 -23,-23 -12,0 -23,11 -23,23l0 51 -51 0c-12,0 -23,11 -23,23 0,13 11,23 23,23l74 0z"/>
    <path class="fil2" d="M736 1352l-123 0c-13,0 -23,10 -23,23l0 148c0,12 10,23 23,23l123 0c13,0 23,-11 23,-23l0 -148c0,-13 -10,-23 -23,-23zm-23 46l0 28 -77 0 0 -28 77 0zm-77 101l0 -27 77 0 0 27 -77 0z"/>
    <path class="fil2" d="M514 1352l-123 0c-13,0 -23,10 -23,23l0 148c0,12 10,23 23,23l123 0c13,0 23,-11 23,-23l0 -148c0,-13 -10,-23 -23,-23zm-23 46l0 28 -77 0 0 -28 77 0zm-77 101l0 -27 77 0 0 27 -77 0z"/>
    <path class="fil2" d="M728 1056l-108 0c-17,0 -30,14 -30,31l0 164c0,13 10,24 23,24l123 0c13,0 23,-11 23,-24l0 -164c0,-17 -14,-31 -31,-31zm-15 46l0 52 -77 0 0 -52 77 0zm-77 126l0 -27 77 0 0 27 -77 0z"/>
    <path class="fil2" d="M506 1056l-107 0c-17,0 -31,14 -31,31l0 164c0,13 10,24 23,24l123 0c13,0 23,-11 23,-24l0 -164c0,-17 -14,-31 -31,-31zm-15 46l0 52 -77 0 0 -52 77 0zm-77 126l0 -27 77 0 0 27 -77 0z"/>
    <path class="fil2" d="M1451 1546l123 0c13,0 23,-11 23,-23l0 -148c0,-13 -10,-23 -23,-23l-123 0c-13,0 -23,10 -23,23l0 148c0,12 10,23 23,23zm23 -47l0 -27 77 0 0 27 -77 0zm77 -101l0 28 -77 0 0 -28 77 0z"/>
    <path class="fil2" d="M1229 1546l123 0c13,0 23,-11 23,-23l0 -148c0,-13 -10,-23 -23,-23l-123 0c-13,0 -23,10 -23,23l0 148c0,12 10,23 23,23zm23 -47l0 -27 77 0 0 27 -77 0zm77 -101l0 28 -77 0 0 -28 77 0z"/>
    <path class="fil2" d="M1451 1275l123 0c13,0 23,-11 23,-24l0 -164c0,-17 -14,-31 -31,-31l-108 0c-17,0 -30,14 -30,31l0 164c0,13 10,24 23,24zm23 -47l0 -27 77 0 0 27 -77 0zm77 -126l0 52 -77 0 0 -52 77 0z"/>
    <path class="fil2" d="M1229 1275l123 0c13,0 23,-11 23,-24l0 -164c0,-17 -14,-31 -31,-31l-107 0c-17,0 -31,14 -31,31l0 164c0,13 10,24 23,24zm23 -47l0 -27 77 0 0 27 -77 0zm77 -126l0 52 -77 0 0 -52 77 0z"/>
   </g>
   <g>
   </g>
   <g>
   </g>
   <g>
   </g>
   <g>
   </g>
   <g>
   </g>
   <g>
   </g>
   <g>
   </g>
   <g>
   </g>
   <g>
   </g>
   <g>
   </g>
   <g>
   </g>
   <g>
   </g>
   <g>
   </g>
   <g>
   </g>
   <g>
   </g>
  </g>
 </g>
</svg>
