<?xml version="1.0" encoding="UTF-8"?>
<!DOCTYPE svg PUBLIC "-//W3C//DTD SVG 1.1//EN" "http://www.w3.org/Graphics/SVG/1.1/DTD/svg11.dtd">
<!-- Creator: CorelDRAW X8 -->
<svg xmlns="http://www.w3.org/2000/svg" xml:space="preserve" width="419px" height="151px" version="1.1" style="shape-rendering:geometricPrecision; text-rendering:geometricPrecision; image-rendering:optimizeQuality; fill-rule:evenodd; clip-rule:evenodd"
viewBox="0 0 9683 3486"
 xmlns:xlink="http://www.w3.org/1999/xlink">
 <defs>
  <style type="text/css">
   <![CDATA[
    .fil3 {fill:#868686;fill-rule:nonzero}
    .fil2 {fill:#9F0D15;fill-rule:nonzero}
    .fil0 {fill:#B70018;fill-rule:nonzero}
    .fil1 {fill:white;fill-rule:nonzero}
    .fil4 {fill:url(#id0)}
    .fil5 {fill:url(#id1)}
    .fil6 {fill:url(#id2)}
   ]]>
  </style>
  <linearGradient id="id0" gradientUnits="userSpaceOnUse" x1="2506.68" y1="1713.26" x2="2931.55" y2="1020.72">
   <stop offset="0" style="stop-opacity:1; stop-color:#272727"/>
   <stop offset="1" style="stop-opacity:1; stop-color:#9B9B9B"/>
  </linearGradient>
  <linearGradient id="id1" gradientUnits="userSpaceOnUse" x1="2272.21" y1="1362.29" x2="2396.21" y2="5.46155">
   <stop offset="0" style="stop-opacity:1; stop-color:#B80B17"/>
   <stop offset="1" style="stop-opacity:1; stop-color:#D70819"/>
  </linearGradient>
  <linearGradient id="id2" gradientUnits="userSpaceOnUse" x1="2696.65" y1="828.451" x2="3522.54" y2="539.297">
   <stop offset="0" style="stop-opacity:1; stop-color:#3F0000"/>
   <stop offset="1" style="stop-opacity:1; stop-color:#D70819"/>
  </linearGradient>
 </defs>
 <g id="Слой_x0020_1">
  <metadata id="CorelCorpID_0Corel-Layer"/>
  <path class="fil0" d="M3896 1367l0 -1346 272 0 0 1346 -272 0zm1745 0l-296 0 -117 -306 -539 0 -111 306 -288 0 524 -1346 288 0 539 1346zm-501 -532l-185 -500 -182 500 367 0zm645 -814l539 0c106,0 186,4 238,13 52,9 99,28 141,56 41,28 76,65 103,112 27,47 41,99 41,158 0,63 -17,121 -51,173 -34,53 -80,93 -138,119 82,24 145,64 189,122 45,57 66,125 66,203 0,61 -14,120 -42,178 -29,59 -68,104 -117,139 -50,35 -110,56 -182,64 -46,5 -155,8 -328,9l-459 0 0 -1346zm272 224l0 311 178 0c106,0 172,-1 198,-5 46,-5 83,-21 110,-47 27,-27 40,-62 40,-106 0,-41 -12,-75 -35,-101 -23,-26 -57,-42 -102,-47 -27,-3 -105,-5 -233,-5l-156 0zm0 535l0 361 252 0c98,0 160,-3 186,-9 41,-7 74,-26 100,-54 25,-28 37,-66 37,-114 0,-40 -9,-75 -29,-103 -20,-28 -48,-48 -85,-62 -37,-12 -117,-19 -241,-19l-220 0z"/>
  <g id="_2391698588304">
   <path class="fil1" d="M5 2412l0 -337 101 0 61 230 61 -230 102 0 0 337 -64 0 0 -265 -66 265 -66 0 -66 -265 0 265 -63 0zm392 0l0 -337 250 0 0 57 -182 0 0 75 169 0 0 57 -169 0 0 91 188 0 0 57 -256 0zm525 -337l0 144c11,-1 20,-6 26,-13 6,-8 14,-25 24,-51 13,-36 27,-58 41,-68 14,-9 38,-14 70,-14 1,0 5,0 10,0l0 50 -10 0c-14,0 -24,2 -30,5 -7,4 -12,9 -16,16 -4,7 -10,21 -18,43 -4,12 -8,22 -13,30 -5,7 -13,15 -26,21 15,5 28,14 38,27 10,13 21,31 32,55l46 92 -80 0 -40 -87c-1,-1 -2,-4 -4,-7 -1,-2 -4,-8 -8,-16 -9,-16 -16,-26 -21,-31 -6,-4 -13,-7 -21,-7l0 148 -66 0 0 -148c-8,0 -15,3 -20,7 -6,4 -13,15 -22,31 -4,9 -7,14 -8,16 -1,2 -3,4 -4,7l-40 87 -80 0 46 -92c11,-23 22,-41 32,-55 10,-13 22,-22 38,-27 -12,-6 -21,-14 -26,-21 -4,-8 -9,-18 -13,-30 -8,-21 -14,-35 -18,-43 -3,-7 -9,-12 -15,-16 -7,-3 -17,-5 -32,-5 -2,0 -5,0 -9,0l0 -50c5,0 9,0 10,0 33,0 56,5 70,15 14,10 28,32 41,67 10,26 19,44 24,51 6,7 14,12 26,13l0 -144 66 0zm241 0l232 0 0 280 30 0 0 130 -57 0 0 -73 -212 0 0 73 -56 0 0 -130 28 0c14,-28 24,-62 28,-100 4,-38 7,-86 7,-144l0 -36zm64 57c0,102 -9,177 -27,223l128 0 0 -223 -101 0zm215 -57l76 0 79 175 67 -175 71 0 -114 256c-12,28 -25,49 -38,63 -13,15 -29,22 -50,22 -20,0 -35,-1 -47,-4l0 -50c10,0 19,1 26,1 16,0 28,-3 34,-9 7,-6 14,-18 20,-37l-124 -242zm327 337l0 -337 68 0 0 133 133 0 0 -133 68 0 0 337 -68 0 0 -147 -133 0 0 147 -68 0zm643 0l-74 0 -29 -77 -135 0 -28 77 -72 0 131 -337 72 0 135 337zm-125 -133l-46 -125 -46 125 92 0zm161 133l0 -337 109 0c42,0 68,2 81,5 19,5 35,16 48,33 13,17 20,39 20,66 0,21 -4,38 -11,52 -8,14 -17,25 -29,33 -12,8 -23,14 -35,16 -16,3 -40,5 -71,5l-44 0 0 127 -68 0zm68 -280l0 96 37 0c27,0 45,-2 54,-5 9,-4 16,-10 21,-17 5,-8 8,-16 8,-26 0,-12 -4,-23 -11,-31 -7,-7 -16,-12 -27,-14 -8,-2 -25,-3 -49,-3l-33 0zm252 114c0,-35 5,-63 15,-87 8,-17 18,-32 31,-46 14,-13 28,-23 44,-30 21,-9 45,-13 73,-13 49,0 89,15 119,46 29,31 44,73 44,128 0,54 -15,97 -44,128 -30,30 -69,46 -119,46 -50,0 -89,-16 -119,-46 -30,-31 -44,-73 -44,-126zm70 -3c0,39 9,67 26,87 18,20 40,30 67,30 27,0 50,-10 67,-30 17,-19 26,-48 26,-87 0,-39 -8,-68 -25,-87 -17,-19 -40,-28 -68,-28 -28,0 -50,9 -67,28 -18,20 -26,49 -26,87zm330 -168l233 0 0 280 29 0 0 130 -56 0 0 -73 -212 0 0 73 -57 0 0 -130 29 0c14,-28 23,-62 27,-100 5,-38 7,-86 7,-144l0 -36zm65 57c0,102 -10,177 -28,223l128 0 0 -223 -100 0zm243 280l0 -337 68 0 0 133 133 0 0 -133 68 0 0 337 -68 0 0 -147 -133 0 0 147 -68 0zm643 0l-74 0 -29 -77 -135 0 -28 77 -72 0 131 -337 72 0 135 337zm-125 -133l-47 -125 -45 125 92 0zm362 133l0 -141 -13 0c-22,0 -37,4 -46,10 -9,6 -24,26 -45,58l-49 73 -81 0 41 -66c16,-26 29,-44 39,-54 9,-11 21,-20 36,-29 -32,-5 -54,-15 -68,-32 -14,-17 -21,-38 -21,-61 0,-21 5,-39 15,-55 11,-15 24,-26 41,-31 17,-6 43,-9 76,-9l143 0 0 337 -68 0zm0 -280l-53 0c-27,0 -44,1 -53,2 -8,1 -16,5 -22,12 -6,7 -9,17 -9,28 0,12 3,21 9,28 6,7 13,11 22,13 10,2 28,3 56,3l50 0 0 -86zm571 280l-74 0 -29 -77 -135 0 -28 77 -72 0 131 -337 72 0 135 337zm-125 -133l-46 -125 -46 125 92 0zm162 -204l68 0 0 144c15,-2 26,-6 31,-12 5,-6 14,-24 25,-52 14,-37 28,-60 42,-68 14,-9 37,-14 68,-14 2,0 5,0 10,0l0 50 -9 0c-14,0 -24,2 -31,5 -6,4 -11,9 -15,16 -4,7 -10,21 -18,43 -4,12 -9,22 -13,30 -5,7 -14,15 -26,21 15,5 28,14 37,26 10,14 21,32 33,56l46 92 -80 0 -40 -87c-1,-1 -2,-4 -4,-7 -1,-1 -4,-7 -9,-16 -8,-17 -16,-27 -21,-31 -6,-4 -14,-6 -26,-7l0 148 -68 0 0 -337zm590 337l-74 0 -30 -77 -134 0 -28 77 -72 0 131 -337 72 0 135 337zm-126 -133l-46 -125 -45 125 91 0zm206 -204l233 0 0 280 29 0 0 130 -56 0 0 -73 -212 0 0 73 -56 0 0 -130 28 0c14,-28 23,-62 28,-100 4,-38 6,-86 6,-144l0 -36zm65 57c0,102 -9,177 -28,223l128 0 0 -223 -100 0zm243 280l0 -337 250 0 0 57 -182 0 0 75 169 0 0 57 -169 0 0 91 188 0 0 57 -256 0zm313 0l0 -337 101 0 62 230 60 -230 102 0 0 337 -63 0 0 -265 -67 265 -66 0 -66 -265 0 265 -63 0zm393 -337l64 0 0 224 136 -224 68 0 0 337 -64 0 0 -220 -136 220 -68 0 0 -337zm539 337l0 -141 -14 0c-22,0 -37,4 -45,10 -9,6 -24,26 -46,58l-49 73 -81 0 41 -66c16,-26 29,-44 39,-54 10,-11 22,-20 36,-29 -31,-5 -54,-15 -68,-32 -14,-17 -21,-38 -21,-61 0,-21 6,-39 16,-55 10,-15 24,-26 41,-31 17,-6 42,-9 76,-9l143 0 0 337 -68 0zm0 -280l-53 0c-27,0 -45,1 -53,2 -9,1 -16,5 -22,12 -7,7 -10,17 -10,28 0,12 3,21 9,28 6,7 14,11 23,13 9,2 27,3 55,3l51 0 0 -86zm268 -57l252 0 0 57 -184 0 0 78 91 0c25,0 46,3 63,9 16,6 30,18 42,34 12,17 18,36 18,58 0,23 -6,42 -18,59 -12,16 -25,27 -40,33 -15,6 -37,9 -65,9l-159 0 0 -337zm68 280l66 0c22,0 36,-1 45,-3 9,-2 16,-6 22,-14 7,-7 10,-16 10,-27 0,-15 -6,-27 -17,-34 -11,-7 -30,-11 -57,-11l-69 0 0 89zm270 -280l63 0 0 224 137 -224 67 0 0 337 -63 0 0 -220 -136 220 -68 0 0 -337zm385 92l-66 -15c14,-55 54,-82 121,-82 39,0 69,8 89,26 21,17 31,37 31,61 0,16 -5,30 -14,43 -9,13 -23,25 -41,34 22,8 39,19 50,33 11,14 17,31 17,52 0,29 -11,53 -33,71 -22,19 -54,28 -97,28 -35,0 -63,-6 -84,-18 -20,-12 -35,-34 -45,-66l62 -20c6,20 15,33 25,39 11,6 24,9 40,9 21,0 37,-5 47,-14 9,-9 14,-20 14,-32 0,-13 -5,-25 -16,-33 -11,-8 -28,-13 -51,-13l-15 0 0 -50 8 0c21,0 37,-5 48,-14 11,-10 16,-22 16,-37 0,-13 -4,-23 -13,-32 -9,-8 -22,-12 -39,-12 -28,0 -46,14 -54,42zm214 245l0 -337 68 0 0 133 133 0 0 -133 68 0 0 337 -68 0 0 -147 -133 0 0 147 -68 0zm339 0l0 -337 250 0 0 57 -182 0 0 75 169 0 0 57 -169 0 0 91 188 0 0 57 -256 0zm529 -124l66 21c-10,37 -27,64 -51,82 -23,18 -53,27 -89,27 -45,0 -81,-16 -110,-46 -29,-31 -43,-72 -43,-125 0,-56 14,-100 43,-131 29,-31 67,-46 114,-46 41,0 75,12 101,36 15,14 26,35 34,62l-67 16c-4,-17 -13,-31 -25,-41 -13,-10 -28,-15 -46,-15 -25,0 -45,9 -61,27 -16,18 -23,46 -23,87 0,42 7,72 23,90 15,18 35,28 59,28 18,0 34,-6 47,-18 13,-11 22,-29 28,-54zm416 124l-74 0 -29 -77 -135 0 -28 77 -72 0 132 -337 71 0 135 337zm-125 -133l-46 -125 -46 125 92 0z"/>
   <path class="fil2" d="M17 2934l0 -347 46 0 0 347 -46 0zm126 0l0 -347 48 0 182 272 0 -272 44 0 0 347 -47 0 -183 -273 0 273 -44 0zm440 0l0 -306 -114 0 0 -41 275 0 0 41 -115 0 0 306 -46 0zm209 0l0 -347 252 0 0 41 -206 0 0 106 193 0 0 41 -193 0 0 118 214 0 0 41 -260 0zm324 0l0 -347 154 0c31,0 55,3 71,9 16,6 29,17 39,33 9,16 14,33 14,52 0,25 -8,46 -24,63 -16,17 -40,28 -74,32 12,6 22,12 28,17 13,13 26,28 38,47l61 94 -58 0 -46 -72c-14,-21 -25,-37 -34,-48 -8,-11 -16,-19 -23,-23 -7,-5 -14,-8 -21,-9 -5,-2 -14,-2 -25,-2l-54 0 0 154 -46 0zm46 -194l99 0c21,0 38,-2 49,-7 12,-4 21,-11 28,-20 6,-10 9,-20 9,-32 0,-16 -6,-30 -18,-40 -12,-11 -31,-16 -57,-16l-110 0 0 115zm304 194l0 -347 47 0 183 272 0 -272 44 0 0 347 -47 0 -183 -273 0 273 -44 0zm313 0l134 -347 49 0 142 347 -52 0 -41 -105 -145 0 -38 105 -49 0zm100 -143l118 0 -36 -96c-11,-29 -19,-53 -25,-72 -4,22 -10,45 -18,66l-39 102zm315 143l0 -306 -115 0 0 -41 276 0 0 41 -115 0 0 306 -46 0zm216 0l0 -347 46 0 0 347 -46 0zm113 -169c0,-58 16,-103 47,-136 31,-32 70,-49 120,-49 32,0 61,8 86,23 26,16 46,37 59,65 14,27 21,58 21,93 0,35 -8,67 -22,95 -14,27 -34,48 -60,63 -26,14 -55,21 -85,21 -33,0 -62,-8 -88,-23 -25,-16 -45,-38 -58,-65 -13,-28 -20,-57 -20,-87zm47 1c0,42 12,74 34,99 23,24 51,36 85,36 35,0 63,-12 86,-37 22,-24 33,-59 33,-103 0,-29 -5,-53 -14,-74 -10,-22 -24,-38 -42,-50 -19,-11 -39,-17 -62,-17 -33,0 -61,11 -84,33 -24,23 -36,60 -36,113zm344 168l0 -347 48 0 182 272 0 -272 44 0 0 347 -47 0 -183 -273 0 273 -44 0zm314 0l133 -347 50 0 142 347 -52 0 -41 -105 -145 0 -39 105 -48 0zm100 -143l118 0 -37 -96c-11,-29 -19,-53 -24,-72 -5,22 -11,45 -19,66l-38 102zm260 143l0 -347 46 0 0 306 171 0 0 41 -217 0zm324 0l133 -347 50 0 142 347 -52 0 -41 -105 -145 0 -38 105 -49 0zm100 -143l118 0 -36 -96c-11,-29 -19,-53 -25,-72 -4,22 -10,45 -19,66l-38 102zm510 21l46 12c-9,38 -27,67 -52,86 -25,20 -55,30 -92,30 -37,0 -68,-7 -91,-23 -24,-15 -41,-37 -54,-66 -12,-29 -18,-60 -18,-93 0,-36 7,-68 21,-95 13,-27 33,-47 59,-61 25,-14 53,-21 84,-21 35,0 64,8 88,26 23,18 40,43 49,75l-45 11c-8,-26 -20,-44 -35,-56 -15,-11 -35,-17 -58,-17 -27,0 -49,6 -67,19 -18,13 -30,30 -38,52 -7,21 -11,44 -11,67 0,29 5,55 13,77 9,22 22,39 40,49 19,11 38,17 60,17 25,0 47,-8 65,-23 18,-14 30,-36 36,-66zm65 122l133 -347 50 0 142 347 -52 0 -41 -105 -145 0 -38 105 -49 0zm100 -143l118 0 -36 -96c-11,-29 -20,-53 -25,-72 -4,22 -10,45 -19,66l-38 102zm262 143l0 -347 120 0c27,0 48,1 62,5 20,4 37,12 51,24 18,16 32,36 41,60 9,24 14,52 14,83 0,26 -3,49 -10,70 -6,20 -14,37 -23,50 -10,14 -21,24 -32,32 -11,8 -25,13 -42,17 -16,4 -34,6 -56,6l-125 0zm46 -41l74 0c23,0 41,-2 54,-6 13,-4 24,-10 32,-18 10,-11 19,-26 25,-44 6,-19 9,-41 9,-67 0,-37 -6,-65 -18,-84 -12,-20 -26,-33 -43,-39 -13,-5 -32,-7 -60,-7l-73 0 0 265zm306 41l0 -347 251 0 0 41 -205 0 0 106 192 0 0 41 -192 0 0 118 213 0 0 41 -259 0zm322 0l0 -347 69 0 82 246c8,23 13,40 17,51 4,-12 10,-31 18,-55l84 -242 61 0 0 347 -44 0 0 -291 -101 291 -42 0 -100 -296 0 296 -44 0zm504 0l0 -147 -134 -200 56 0 68 104c13,20 25,40 36,59 10,-18 23,-39 38,-61l67 -102 53 0 -138 200 0 147 -46 0zm338 -169c0,-58 16,-103 47,-136 31,-32 70,-49 120,-49 32,0 61,8 86,23 26,16 46,37 59,65 14,27 21,58 21,93 0,35 -8,67 -22,95 -14,27 -34,48 -60,63 -26,14 -55,21 -85,21 -33,0 -62,-8 -88,-23 -25,-16 -45,-38 -58,-65 -13,-28 -20,-57 -20,-87zm47 1c0,42 12,74 34,99 23,24 51,36 85,36 35,0 63,-12 86,-37 22,-24 33,-59 33,-103 0,-29 -5,-53 -14,-74 -10,-22 -24,-38 -42,-50 -19,-11 -39,-17 -62,-17 -33,0 -61,11 -84,33 -24,23 -36,60 -36,113zm347 168l0 -347 235 0 0 41 -189 0 0 107 163 0 0 41 -163 0 0 158 -46 0zm428 0l0 -347 130 0c27,0 48,3 64,10 16,7 29,18 38,33 9,14 13,30 13,46 0,14 -4,28 -12,42 -8,13 -20,23 -36,31 21,6 37,17 48,32 11,15 17,32 17,52 0,17 -3,32 -10,46 -7,14 -16,25 -26,32 -10,8 -22,14 -38,17 -15,4 -34,6 -56,6l-132 0zm46 -201l75 0c20,0 35,-2 44,-4 11,-4 20,-10 26,-18 6,-8 9,-18 9,-30 0,-12 -3,-22 -8,-31 -6,-8 -14,-14 -24,-18 -10,-3 -28,-4 -53,-4l-69 0 0 105zm0 160l86 0c15,0 25,0 32,-1 10,-2 19,-6 26,-10 7,-4 13,-11 18,-19 4,-9 6,-19 6,-30 0,-12 -3,-24 -9,-33 -7,-10 -16,-17 -28,-20 -12,-4 -29,-6 -51,-6l-80 0 0 119zm508 -306l46 0 0 200c0,35 -4,63 -12,84 -8,20 -22,37 -43,50 -21,13 -48,19 -81,19 -33,0 -59,-5 -80,-17 -21,-11 -36,-27 -44,-48 -9,-22 -14,-51 -14,-88l0 -200 46 0 0 200c0,30 3,53 9,67 5,14 15,25 29,33 13,8 30,12 50,12 34,0 58,-8 72,-23 15,-16 22,-45 22,-89l0 -200zm107 236l43 -4c2,17 7,31 15,43 7,11 19,20 34,27 16,6 34,10 54,10 17,0 33,-3 46,-8 14,-5 24,-12 30,-21 7,-9 10,-19 10,-30 0,-11 -3,-21 -9,-29 -7,-8 -17,-15 -32,-20 -9,-4 -30,-10 -61,-17 -32,-8 -55,-15 -68,-22 -16,-9 -29,-19 -37,-32 -8,-13 -12,-28 -12,-44 0,-17 5,-34 15,-49 10,-15 25,-27 44,-35 19,-7 40,-11 63,-11 26,0 49,4 69,12 19,8 34,21 45,37 11,16 16,34 17,54l-44 4c-2,-22 -10,-39 -24,-50 -14,-11 -34,-17 -61,-17 -28,0 -48,5 -60,15 -13,11 -20,23 -20,37 0,13 5,23 14,31 9,8 32,17 69,25 38,8 63,16 77,22 21,9 36,21 45,36 10,14 15,31 15,49 0,19 -6,36 -16,52 -11,17 -26,29 -46,39 -20,9 -42,13 -67,13 -32,0 -58,-4 -79,-14 -21,-9 -38,-23 -50,-41 -12,-18 -19,-39 -19,-62zm347 111l0 -347 46 0 0 347 -46 0zm127 0l0 -347 47 0 183 272 0 -272 44 0 0 347 -47 0 -183 -273 0 273 -44 0zm352 0l0 -347 252 0 0 41 -206 0 0 106 193 0 0 41 -193 0 0 118 214 0 0 41 -260 0zm308 -111l43 -4c2,17 7,31 14,43 8,11 20,20 35,27 16,6 34,10 54,10 17,0 33,-3 46,-8 14,-5 24,-12 30,-21 7,-9 10,-19 10,-30 0,-11 -3,-21 -9,-29 -7,-8 -17,-15 -32,-20 -9,-4 -30,-10 -62,-17 -31,-8 -54,-15 -67,-22 -16,-9 -29,-19 -37,-32 -8,-13 -12,-28 -12,-44 0,-17 5,-34 15,-49 10,-15 24,-27 44,-35 19,-7 40,-11 63,-11 26,0 49,4 69,12 19,8 34,21 45,37 11,16 16,34 17,54l-44 4c-2,-22 -10,-39 -24,-50 -14,-11 -34,-17 -61,-17 -28,0 -48,5 -61,15 -12,11 -19,23 -19,37 0,13 5,23 14,31 9,8 32,17 69,25 38,8 63,16 77,22 20,9 35,21 45,36 10,14 15,31 15,49 0,19 -6,36 -16,52 -11,17 -26,29 -46,39 -20,9 -42,13 -67,13 -32,0 -58,-4 -79,-14 -21,-9 -38,-23 -50,-41 -12,-18 -19,-39 -19,-62zm324 0l43 -4c2,17 7,31 14,43 8,11 20,20 35,27 16,6 34,10 54,10 17,0 33,-3 46,-8 14,-5 24,-12 30,-21 7,-9 10,-19 10,-30 0,-11 -3,-21 -9,-29 -7,-8 -17,-15 -32,-20 -9,-4 -30,-10 -61,-17 -32,-8 -55,-15 -68,-22 -16,-9 -29,-19 -37,-32 -8,-13 -12,-28 -12,-44 0,-17 5,-34 15,-49 10,-15 25,-27 44,-35 19,-7 40,-11 63,-11 26,0 49,4 69,12 19,8 34,21 45,37 11,16 16,34 17,54l-44 4c-2,-22 -10,-39 -24,-50 -14,-11 -34,-17 -61,-17 -28,0 -48,5 -61,15 -12,11 -19,23 -19,37 0,13 5,23 14,31 9,8 32,17 69,25 38,8 63,16 77,22 20,9 35,21 45,36 10,14 15,31 15,49 0,19 -6,36 -16,52 -11,17 -26,29 -46,39 -20,9 -42,13 -67,13 -32,0 -58,-4 -79,-14 -21,-9 -38,-23 -50,-41 -12,-18 -19,-39 -19,-62z"/>
   <path class="fil3" d="M0 3404l0 -276 55 0 66 196c6,18 10,32 13,41 3,-10 8,-25 14,-45l67 -192 49 0 0 276 -35 0 0 -231 -81 231 -33 0 -80 -235 0 235 -35 0zm460 -64l35 4c-5,21 -15,37 -30,48 -15,11 -34,17 -58,17 -29,0 -52,-9 -69,-27 -18,-18 -26,-44 -26,-76 0,-34 8,-60 26,-79 17,-18 40,-28 67,-28 27,0 49,10 66,28 17,18 26,44 26,77 0,2 0,5 -1,9l-149 0c1,22 7,39 19,50 11,12 25,18 42,18 12,0 23,-3 31,-10 9,-6 16,-17 21,-31zm-111 -55l112 0c-2,-17 -6,-30 -13,-38 -11,-13 -25,-20 -42,-20 -16,0 -29,6 -40,16 -10,10 -16,24 -17,42zm306 -81l0 87c11,0 18,-2 23,-7 4,-4 11,-16 19,-36 8,-19 15,-31 21,-36 7,-5 16,-8 30,-8l12 0 0 28 -9 0c-9,0 -15,1 -17,4 -3,3 -7,11 -12,25 -5,13 -10,22 -14,27 -5,5 -11,9 -20,14 14,3 29,17 43,40l37 62 -37 0 -37 -62c-7,-12 -14,-21 -19,-24 -6,-4 -12,-6 -20,-6l0 92 -35 0 0 -92c-7,0 -14,2 -19,5 -6,4 -12,13 -20,25l-36 62 -38 0 38 -62c14,-23 28,-37 43,-40 -10,-5 -17,-10 -21,-16 -4,-5 -10,-18 -18,-39 -3,-7 -6,-11 -9,-13 -4,-1 -8,-2 -15,-2 -2,0 -5,0 -10,0l0 -28 5 0c13,0 22,1 28,2 5,2 10,5 14,10 4,5 10,16 16,32 9,20 15,32 19,36 5,4 12,7 23,7l0 -87 35 0zm164 0l140 0 0 173 22 0 0 84 -28 0 0 -57 -158 0 0 57 -28 0 0 -84 18 0c24,-33 35,-90 34,-173zm29 28c-3,65 -13,113 -31,145l108 0 0 -145 -77 0zm168 250l-3 -32c7,2 14,3 19,3 8,0 14,-1 18,-4 5,-2 8,-6 11,-11 2,-3 6,-11 11,-25 0,-2 1,-5 3,-8l-76 -201 36 0 42 116c5,15 10,30 15,47 3,-16 8,-31 14,-46l42 -117 34 0 -76 204c-8,22 -14,37 -19,45 -6,11 -13,20 -21,25 -7,5 -17,8 -28,8 -6,0 -14,-2 -22,-4zm195 -278l34 0 0 83 95 0 0 -83 34 0 0 200 -34 0 0 -88 -95 0 0 88 -34 0 0 -200zm344 176c-12,10 -24,18 -36,22 -11,5 -24,7 -37,7 -22,0 -39,-5 -51,-16 -12,-11 -18,-25 -18,-41 0,-10 2,-19 7,-27 4,-8 10,-15 17,-20 8,-5 16,-8 25,-11 7,-2 17,-3 30,-5 28,-3 48,-7 61,-12 0,-5 0,-7 0,-9 0,-13 -3,-23 -10,-29 -8,-8 -21,-11 -38,-11 -16,0 -28,2 -36,8 -7,5 -13,15 -17,30l-33 -5c3,-14 8,-26 15,-34 7,-9 17,-16 30,-20 13,-5 28,-8 45,-8 18,0 31,2 42,6 11,5 19,10 24,16 5,6 8,13 10,23 2,6 2,16 2,31l0 45c0,32 1,52 2,60 2,9 5,17 9,24l-36 0c-3,-7 -6,-15 -7,-24zm-2 -76c-13,5 -31,9 -56,13 -14,2 -24,4 -29,6 -6,3 -11,7 -14,11 -3,5 -5,11 -5,17 0,9 4,16 11,22 7,6 17,9 30,9 13,0 25,-3 35,-8 10,-6 17,-14 22,-24 4,-7 6,-19 6,-34l0 -12zm87 177l0 -277 31 0 0 26c7,-10 15,-18 24,-23 10,-5 21,-8 34,-8 17,0 32,5 45,14 13,8 23,21 30,37 6,16 10,34 10,53 0,20 -4,39 -11,55 -8,17 -18,29 -32,38 -14,9 -29,13 -45,13 -11,0 -21,-2 -30,-7 -9,-5 -16,-11 -22,-18l0 97 -34 0zm30 -176c0,26 6,45 16,57 11,13 23,19 38,19 15,0 28,-6 39,-19 11,-13 16,-33 16,-59 0,-26 -5,-45 -16,-58 -10,-13 -23,-19 -37,-19 -15,0 -28,7 -39,20 -11,14 -17,34 -17,59zm172 -1c0,-37 10,-64 31,-82 17,-15 38,-23 63,-23 28,0 50,9 68,27 17,19 26,44 26,75 0,26 -4,46 -12,61 -8,15 -19,26 -33,35 -15,8 -32,12 -49,12 -28,0 -51,-9 -68,-27 -17,-18 -26,-44 -26,-78zm35 0c0,26 6,45 17,58 11,13 25,19 42,19 17,0 31,-6 42,-19 11,-13 17,-33 17,-59 0,-25 -6,-43 -17,-56 -11,-13 -25,-19 -42,-19 -17,0 -31,6 -42,19 -11,12 -17,32 -17,57zm211 -100l140 0 0 173 21 0 0 84 -27 0 0 -57 -158 0 0 57 -28 0 0 -84 18 0c24,-33 35,-90 34,-173zm28 28c-2,65 -12,113 -30,145l108 0 0 -145 -78 0zm171 -28l34 0 0 83 94 0 0 -83 34 0 0 200 -34 0 0 -88 -94 0 0 88 -34 0 0 -200zm404 0l34 0 0 200 -34 0 0 -200zm-190 0l34 0 0 78 43 0c28,0 50,6 65,17 15,11 23,26 23,45 0,16 -7,31 -19,43 -13,12 -33,17 -61,17l-85 0 0 -200zm34 173l36 0c21,0 37,-3 46,-8 9,-6 13,-14 13,-25 0,-9 -3,-17 -10,-23 -7,-7 -22,-11 -45,-11l-40 0 0 67zm243 -173l34 0 0 153 94 -153 37 0 0 200 -34 0 0 -152 -94 152 -37 0 0 -200zm118 -76l23 0c-2,16 -7,28 -17,36 -10,9 -22,13 -38,13 -16,0 -29,-4 -39,-13 -10,-8 -15,-20 -17,-36l23 0c2,9 5,15 11,19 5,5 12,7 21,7 10,0 17,-2 23,-7 5,-4 8,-10 10,-19zm210 0l37 0 0 244 144 0 0 -244 37 0 0 244 25 0 0 109 -32 0 0 -77 -211 0 0 -276zm326 212l35 4c-5,21 -16,37 -31,48 -15,11 -34,17 -57,17 -29,0 -53,-9 -70,-27 -17,-18 -26,-44 -26,-76 0,-34 9,-60 27,-79 17,-18 39,-28 67,-28 27,0 49,10 66,28 17,18 25,44 25,77 0,2 0,5 0,9l-149 0c1,22 7,39 18,50 11,12 25,18 42,18 13,0 23,-3 32,-10 9,-6 16,-17 21,-31zm-112 -55l112 0c-1,-17 -5,-30 -12,-38 -11,-13 -25,-20 -43,-20 -15,0 -28,6 -39,16 -11,10 -16,24 -18,42zm190 -81l34 0 0 83 94 0 0 -83 34 0 0 200 -34 0 0 -88 -94 0 0 88 -34 0 0 -200zm195 0l163 0 0 28 -65 0 0 172 -33 0 0 -172 -65 0 0 -28zm195 277l0 -277 31 0 0 26c8,-10 16,-18 25,-23 9,-5 20,-8 33,-8 18,0 33,5 46,14 13,8 23,21 29,37 7,16 10,34 10,53 0,20 -3,39 -11,55 -7,17 -18,29 -32,38 -14,9 -29,13 -44,13 -11,0 -22,-2 -31,-7 -9,-5 -16,-11 -22,-18l0 97 -34 0zm31 -176c0,26 5,45 16,57 10,13 23,19 38,19 15,0 28,-6 39,-19 10,-13 16,-33 16,-59 0,-26 -6,-45 -16,-58 -11,-13 -23,-19 -38,-19 -14,0 -27,7 -38,20 -11,14 -17,34 -17,59zm321 -177l169 0 0 244 24 0 0 97 -32 0 0 -65 -183 0 0 65 -33 0 0 -97 22 0c22,-34 33,-102 33,-204l0 -40zm132 32l-97 0 0 15c0,23 -2,55 -6,96 -4,41 -12,74 -25,101l128 0 0 -212zm101 44l34 0 0 153 94 -153 36 0 0 200 -34 0 0 -152 -94 152 -36 0 0 -200zm346 127l34 4c-4,23 -13,41 -28,54 -15,13 -34,20 -56,20 -27,0 -49,-9 -66,-27 -17,-18 -25,-44 -25,-77 0,-22 4,-41 11,-57 7,-16 18,-28 33,-36 14,-9 30,-13 48,-13 21,0 39,6 53,17 14,11 23,27 27,47l-34 5c-3,-13 -8,-24 -16,-30 -8,-7 -18,-11 -29,-11 -17,0 -31,6 -42,19 -11,12 -16,31 -16,58 0,27 5,47 16,59 10,12 23,18 40,18 13,0 24,-4 33,-12 9,-8 15,-21 17,-38zm66 -127l163 0 0 28 -64 0 0 172 -34 0 0 -172 -65 0 0 -28zm322 176c-13,10 -25,18 -36,22 -12,5 -24,7 -38,7 -22,0 -39,-5 -51,-16 -11,-11 -17,-25 -17,-41 0,-10 2,-19 6,-27 5,-8 11,-15 18,-20 7,-5 15,-8 24,-11 7,-2 17,-3 31,-5 27,-3 47,-7 60,-12 0,-5 0,-7 0,-9 0,-13 -3,-23 -9,-29 -9,-8 -22,-11 -39,-11 -16,0 -28,2 -35,8 -8,5 -14,15 -17,30l-33 -5c3,-14 8,-26 14,-34 7,-9 17,-16 30,-20 14,-5 29,-8 46,-8 17,0 31,2 42,6 10,5 18,10 23,16 5,6 9,13 11,23 1,6 2,16 2,31l0 45c0,32 0,52 2,60 1,9 4,17 8,24l-35 0c-4,-7 -6,-15 -7,-24zm-3 -76c-12,5 -31,9 -55,13 -14,2 -24,4 -30,6 -6,3 -10,7 -13,11 -4,5 -5,11 -5,17 0,9 3,16 10,22 7,6 17,9 30,9 13,0 25,-3 35,-8 11,-6 18,-14 23,-24 3,-7 5,-19 5,-34l0 -12zm87 -100l34 0 0 83 95 0 0 -83 34 0 0 200 -34 0 0 -88 -95 0 0 88 -34 0 0 -200zm214 0l34 0 0 173 94 0 0 -173 34 0 0 173 22 0 0 84 -28 0 0 -57 -156 0 0 -200zm221 0l34 0 0 153 94 -153 37 0 0 200 -34 0 0 -152 -94 152 -37 0 0 -200zm203 100c0,-37 11,-64 31,-82 18,-15 39,-23 63,-23 28,0 51,9 68,27 17,19 26,44 26,75 0,26 -4,46 -11,61 -8,15 -19,26 -34,35 -15,8 -31,12 -49,12 -28,0 -50,-9 -68,-27 -17,-18 -26,-44 -26,-78zm35 0c0,26 6,45 17,58 11,13 25,19 42,19 17,0 31,-6 43,-19 11,-13 16,-33 16,-59 0,-25 -5,-43 -17,-56 -11,-13 -25,-19 -42,-19 -17,0 -31,6 -42,19 -11,12 -17,32 -17,57zm193 -100l34 0 0 83 94 0 0 -83 34 0 0 200 -34 0 0 -88 -94 0 0 88 -34 0 0 -200zm214 0l34 0 0 83 94 0 0 -83 34 0 0 200 -34 0 0 -88 -94 0 0 88 -34 0 0 -200zm200 100c0,-37 11,-64 31,-82 18,-15 39,-23 63,-23 28,0 50,9 68,27 17,19 26,44 26,75 0,26 -4,46 -11,61 -8,15 -19,26 -34,35 -15,8 -31,12 -49,12 -28,0 -50,-9 -68,-27 -17,-18 -26,-44 -26,-78zm35 0c0,26 6,45 17,58 11,13 25,19 42,19 17,0 31,-6 42,-19 12,-13 17,-33 17,-59 0,-25 -5,-43 -17,-56 -11,-13 -25,-19 -42,-19 -17,0 -31,6 -42,19 -11,12 -17,32 -17,57zm193 -100l116 0 0 28 -82 0 0 172 -34 0 0 -200zm120 100c0,-37 10,-64 31,-82 17,-15 38,-23 63,-23 27,0 50,9 67,27 18,19 27,44 27,75 0,26 -4,46 -12,61 -8,15 -19,26 -34,35 -15,8 -31,12 -48,12 -28,0 -51,-9 -68,-27 -18,-18 -26,-44 -26,-78zm35 0c0,26 5,45 17,58 11,13 25,19 42,19 17,0 31,-6 42,-19 11,-13 17,-33 17,-59 0,-25 -6,-43 -17,-56 -12,-13 -25,-19 -42,-19 -17,0 -31,6 -42,19 -12,12 -17,32 -17,57zm293 -34c0,-46 12,-82 37,-108 25,-26 57,-39 96,-39 25,0 48,6 69,18 20,12 36,29 47,51 10,22 16,47 16,74 0,29 -6,54 -17,76 -12,22 -28,39 -48,50 -21,11 -44,17 -68,17 -26,0 -49,-6 -69,-19 -21,-12 -37,-29 -47,-51 -11,-22 -16,-45 -16,-69zm38 0c0,34 9,60 27,79 18,19 40,29 67,29 28,0 50,-10 68,-29 18,-20 27,-47 27,-83 0,-22 -4,-42 -11,-59 -8,-16 -19,-29 -34,-39 -15,-9 -31,-14 -49,-14 -26,0 -48,9 -67,27 -19,18 -28,48 -28,89zm416 -149l30 1c-1,13 -4,22 -9,28 -4,5 -10,8 -17,10 -8,1 -22,2 -43,2 -28,0 -47,3 -57,8 -10,6 -18,14 -22,26 -5,12 -7,27 -8,46 9,-13 19,-22 30,-28 12,-7 25,-10 39,-10 26,0 48,9 65,27 18,18 26,43 26,73 0,24 -4,43 -13,58 -9,15 -19,26 -31,35 -12,8 -28,12 -48,12 -24,0 -43,-6 -56,-16 -13,-11 -23,-25 -30,-42 -7,-17 -11,-47 -11,-89 0,-53 9,-89 27,-107 18,-18 46,-27 83,-27 23,0 36,-1 39,-2 4,0 6,-2 6,-5zm-1 182c0,-21 -5,-38 -15,-51 -10,-13 -24,-20 -42,-20 -19,0 -33,7 -43,21 -10,14 -16,33 -16,57 0,23 6,41 17,53 12,12 25,19 42,19 17,0 30,-7 41,-22 10,-14 16,-33 16,-57zm76 178l0 -277 31 0 0 26c7,-10 16,-18 25,-23 9,-5 20,-8 33,-8 17,0 32,5 45,14 13,8 23,21 30,37 7,16 10,34 10,53 0,20 -4,39 -11,55 -7,17 -18,29 -32,38 -14,9 -29,13 -44,13 -12,0 -22,-2 -31,-7 -9,-5 -16,-11 -22,-18l0 97 -34 0zm31 -176c0,26 5,45 15,57 11,13 24,19 38,19 15,0 28,-6 39,-19 11,-13 16,-33 16,-59 0,-26 -5,-45 -15,-58 -11,-13 -24,-19 -38,-19 -15,0 -27,7 -39,20 -11,14 -16,34 -16,59zm315 75c-13,10 -25,18 -37,22 -11,5 -24,7 -37,7 -22,0 -39,-5 -51,-16 -12,-11 -18,-25 -18,-41 0,-10 3,-19 7,-27 5,-8 10,-15 18,-20 7,-5 15,-8 24,-11 7,-2 17,-3 30,-5 28,-3 48,-7 61,-12 0,-5 0,-7 0,-9 0,-13 -3,-23 -10,-29 -8,-8 -21,-11 -38,-11 -16,0 -28,2 -36,8 -7,5 -13,15 -16,30l-34 -5c3,-14 8,-26 15,-34 7,-9 17,-16 30,-20 13,-5 29,-8 46,-8 17,0 31,2 41,6 11,5 19,10 24,16 5,6 9,13 11,23 1,6 1,16 1,31l0 45c0,32 1,52 2,60 2,9 5,17 9,24l-35 0c-4,-7 -6,-15 -7,-24zm-3 -76c-12,5 -31,9 -56,13 -13,2 -23,4 -29,6 -6,3 -10,7 -14,11 -3,5 -4,11 -4,17 0,9 3,16 10,22 7,6 17,9 30,9 13,0 25,-3 35,-8 10,-6 18,-14 22,-24 4,-7 6,-19 6,-34l0 -12zm127 10l0 -27c14,0 24,0 29,-1 6,-1 11,-5 15,-10 5,-5 7,-11 7,-18 0,-10 -3,-17 -9,-22 -6,-6 -14,-9 -24,-9 -19,0 -32,12 -40,34l-32 -5c10,-38 34,-57 73,-57 21,0 38,6 50,18 12,12 18,26 18,42 0,16 -8,29 -24,39 11,5 18,12 23,21 5,8 8,18 8,29 0,18 -7,33 -20,44 -13,11 -31,17 -55,17 -46,0 -72,-20 -79,-61l31 -7c3,13 9,23 18,30 9,7 19,11 31,11 11,0 21,-4 28,-10 8,-7 12,-15 12,-25 0,-8 -3,-15 -7,-20 -5,-6 -10,-10 -16,-11 -5,-2 -15,-2 -29,-2 -1,0 -4,0 -8,0zm116 -10c0,-37 10,-64 31,-82 17,-15 38,-23 63,-23 28,0 50,9 68,27 17,19 26,44 26,75 0,26 -4,46 -12,61 -7,15 -19,26 -33,35 -15,8 -31,12 -49,12 -28,0 -51,-9 -68,-27 -17,-18 -26,-44 -26,-78zm35 0c0,26 6,45 17,58 11,13 25,19 42,19 17,0 31,-6 42,-19 11,-13 17,-33 17,-59 0,-25 -6,-43 -17,-56 -11,-13 -25,-19 -42,-19 -17,0 -31,6 -42,19 -11,12 -17,32 -17,57zm193 -100l78 0c20,0 34,2 43,5 9,3 18,9 24,17 7,9 11,19 11,31 0,10 -2,18 -6,25 -4,7 -10,13 -18,18 9,3 17,9 23,18 6,8 9,19 9,30 -1,19 -8,34 -20,43 -12,9 -30,13 -54,13l-90 0 0 -200zm34 84l36 0c15,0 25,0 30,-2 5,-1 10,-5 15,-9 4,-5 6,-10 6,-17 0,-10 -4,-18 -11,-22 -8,-4 -21,-6 -39,-6l-37 0 0 56zm0 89l45 0c19,0 32,-3 39,-7 7,-5 11,-12 12,-23 0,-7 -2,-13 -7,-18 -4,-6 -9,-9 -16,-11 -7,-1 -17,-2 -32,-2l-41 0 0 61zm298 3c-13,10 -25,18 -37,22 -11,5 -24,7 -37,7 -22,0 -39,-5 -51,-16 -12,-11 -18,-25 -18,-41 0,-10 3,-19 7,-27 5,-8 10,-15 18,-20 7,-5 15,-8 24,-11 7,-2 17,-3 30,-5 28,-3 48,-7 61,-12 0,-5 0,-7 0,-9 0,-13 -3,-23 -10,-29 -8,-8 -21,-11 -38,-11 -16,0 -28,2 -36,8 -7,5 -13,15 -17,30l-33 -5c3,-14 8,-26 15,-34 7,-9 17,-16 30,-20 13,-5 28,-8 46,-8 17,0 31,2 41,6 11,5 19,10 24,16 5,6 8,13 10,23 2,6 2,16 2,31l0 45c0,32 1,52 2,60 2,9 5,17 9,24l-36 0c-3,-7 -5,-15 -6,-24zm-3 -76c-12,5 -31,9 -56,13 -14,2 -23,4 -29,6 -6,3 -11,7 -14,11 -3,5 -4,11 -4,17 0,9 3,16 10,22 7,6 17,9 30,9 13,0 25,-3 35,-8 10,-6 18,-14 22,-24 4,-7 6,-19 6,-34l0 -12zm87 -100l34 0 0 83 94 0 0 -83 34 0 0 200 -34 0 0 -88 -94 0 0 88 -34 0 0 -200zm213 0l34 0 0 153 94 -153 37 0 0 200 -34 0 0 -152 -94 152 -37 0 0 -200zm374 0l0 200 -34 0 0 -78 -19 0c-12,0 -21,2 -27,5 -6,3 -14,13 -26,30l-29 43 -42 0 36 -54c11,-16 23,-25 34,-28 -20,-2 -34,-9 -43,-20 -10,-12 -14,-25 -14,-39 0,-18 6,-32 18,-43 12,-11 30,-16 53,-16l93 0zm-34 28l-48 0c-20,0 -33,3 -39,9 -6,7 -9,14 -9,23 0,12 4,20 13,26 9,6 24,8 46,8l37 0 0 -66z"/>
  </g>
  <polygon class="fil4" points="3495,1366 1943,1368 2539,1022 2920,1021 "/>
  <polygon class="fil5" points="2720,0 1949,1368 2534,1023 2727,673 "/>
  <polygon class="fil6" points="2722,0 3497,1368 2902,1013 2716,673 "/>
 </g>
</svg>
