<svg id="Слой_1" xmlns="http://www.w3.org/2000/svg" viewBox="0 0 101.9 31"><style>.st0{fill:url(#SVGID_1_)}.st1{fill:url(#SVGID_2_)}.st2{fill:url(#SVGID_3_)}.st3{fill:url(#SVGID_4_)}.st4{fill:url(#SVGID_5_)}.st5{fill:url(#SVGID_6_)}.st6{fill:url(#SVGID_7_)}.st7{fill:url(#SVGID_8_)}.st8{fill:url(#SVGID_9_)}.st9{fill:url(#SVGID_10_)}.st10{fill:url(#SVGID_11_)}.st11{fill:url(#SVGID_12_)}</style><linearGradient id="SVGID_1_" gradientUnits="userSpaceOnUse" x1="46.6" y1="32.51" x2="46.6" y2=".795" gradientTransform="matrix(1 0 0 -1 0 31.89)"><stop offset=".098" stop-color="#0f0f0f"/><stop offset=".326" stop-color="#343434"/><stop offset="1" stop-color="#0f0f0f"/></linearGradient><path class="st0" d="M44.5 31V.4h4.2V31h-4.2z"/><linearGradient id="SVGID_2_" gradientUnits="userSpaceOnUse" x1="92.2" y1="32.51" x2="92.2" y2=".795" gradientTransform="matrix(1 0 0 -1 0 31.89)"><stop offset=".098" stop-color="#0f0f0f"/><stop offset=".326" stop-color="#343434"/><stop offset="1" stop-color="#0f0f0f"/></linearGradient><path class="st1" d="M91.2 31h-8.7V.4c3.7-.2 6.4-.3 8-.3 3 0 5.4.7 7 2 1.7 1.3 2.5 3.2 2.5 5.6 0 1.4-.5 2.7-1.6 3.9s-2.2 1.9-3.5 2.2c2.4.6 4.2 1.6 5.3 2.9 1.1 1.4 1.7 3.2 1.7 5.5 0 2.7-1 4.8-3 6.4-1.9 1.6-4.5 2.4-7.7 2.4zM86.7 3.8v8.8c.9.1 2 .1 3.3.1 4 0 5.9-1.6 5.9-4.8 0-2.8-1.8-4.2-5.4-4.2-1.5-.1-2.7 0-3.8.1zm0 12v11.7c1.4.1 2.5.2 3.3.2 2.6 0 4.5-.5 5.7-1.5 1.2-1 1.8-2.5 1.8-4.7 0-2-.6-3.5-1.7-4.4s-3.1-1.4-5.8-1.4l-3.3.1z"/><linearGradient id="SVGID_3_" gradientUnits="userSpaceOnUse" x1="65.349" y1="32.51" x2="65.349" y2=".795" gradientTransform="matrix(1 0 0 -1 0 31.89)"><stop offset=".098" stop-color="#0f0f0f"/><stop offset=".326" stop-color="#343434"/><stop offset="1" stop-color="#0f0f0f"/></linearGradient><path class="st2" d="M73.3 31l-2.1-6.5H59.8L57.5 31h-4.7L65.3 0h1.1l11.5 31h-4.6zM65.6 8l-4.7 13.5H70L65.6 8z"/><linearGradient id="SVGID_4_" gradientUnits="userSpaceOnUse" x1="14.547" y1="28.979" x2="32.806" y2="-1.122" gradientTransform="matrix(1 0 0 -1 0 31.89)"><stop offset="0" stop-color="#4d0f11"/><stop offset=".361" stop-color="#801710"/><stop offset=".498" stop-color="#9c1915"/><stop offset=".796" stop-color="#821810"/></linearGradient><path class="st3" d="M17.7 15.5v-.1l4.6 8 8.5 4.9 4.5 2.6L17.7.4v15.1z"/><linearGradient id="SVGID_5_" gradientUnits="userSpaceOnUse" x1="19.097" y1="26.18" x2="2.727" y2="-1.004" gradientTransform="matrix(1 0 0 -1 0 31.89)"><stop offset=".067" stop-color="#e41924"/><stop offset=".416" stop-color="#b1191f"/><stop offset=".549" stop-color="#b5191b"/><stop offset=".894" stop-color="#d91621"/></linearGradient><path class="st4" d="M17.7 15.5V.4L0 30.9l13.1-7.6 4.6-7.8z"/><linearGradient id="SVGID_6_" gradientUnits="userSpaceOnUse" x1="14.617" y1="29.022" x2="32.859" y2="-1.05" gradientTransform="matrix(1 0 0 -1 0 31.89)"><stop offset="0" stop-color="#4d0f11"/><stop offset=".361" stop-color="#801710"/><stop offset=".498" stop-color="#9c1915"/><stop offset=".796" stop-color="#821810"/></linearGradient><path class="st5" d="M17.7 15.5V.4v15.1z"/><linearGradient id="SVGID_7_" gradientUnits="userSpaceOnUse" x1="19.061" y1="26.201" x2="2.692" y2="-.983" gradientTransform="matrix(1 0 0 -1 0 31.89)"><stop offset=".067" stop-color="#e41924"/><stop offset=".416" stop-color="#b1191f"/><stop offset=".549" stop-color="#b5191b"/><stop offset=".894" stop-color="#d91621"/></linearGradient><path class="st6" d="M17.7 15.5V.4v15.1z"/><linearGradient id="SVGID_8_" gradientUnits="userSpaceOnUse" x1="31.936" y1="6.917" x2="9.269" y2=".686" gradientTransform="matrix(1 0 0 -1 0 31.89)"><stop offset="0" stop-color="#cfcece"/><stop offset=".973" stop-color="#353535"/></linearGradient><path class="st7" d="M22.2 23.4h-9.1v-.1L0 30.9h35.3l-4.5-2.6-8.6-4.9z"/><linearGradient id="SVGID_9_" gradientUnits="userSpaceOnUse" x1="13.113" y1="28.108" x2="31.355" y2="-1.963" gradientTransform="matrix(1 0 0 -1 0 31.89)"><stop offset="0" stop-color="#4d0f11"/><stop offset=".361" stop-color="#801710"/><stop offset=".498" stop-color="#9c1915"/><stop offset=".796" stop-color="#821810"/></linearGradient><path class="st8" d="M22.2 23.4l8.6 4.9-8.5-4.9h-.1z"/><linearGradient id="SVGID_10_" gradientUnits="userSpaceOnUse" x1="31.778" y1="7.491" x2="9.111" y2="1.26" gradientTransform="matrix(1 0 0 -1 0 31.89)"><stop offset="0" stop-color="#cfcece"/><stop offset=".973" stop-color="#353535"/></linearGradient><path class="st9" d="M22.2 23.4l8.6 4.9-8.5-4.9h-.1z"/><linearGradient id="SVGID_11_" gradientUnits="userSpaceOnUse" x1="19.341" y1="26.032" x2="2.972" y2="-1.152" gradientTransform="matrix(1 0 0 -1 0 31.89)"><stop offset=".067" stop-color="#e41924"/><stop offset=".416" stop-color="#b1191f"/><stop offset=".549" stop-color="#b5191b"/><stop offset=".894" stop-color="#d91621"/></linearGradient><path class="st10" d="M13.1 23.3L0 30.9l13.1-7.6z"/><linearGradient id="SVGID_12_" gradientUnits="userSpaceOnUse" x1="30.696" y1="11.428" x2="8.03" y2="5.197" gradientTransform="matrix(1 0 0 -1 0 31.89)"><stop offset="0" stop-color="#cfcece"/><stop offset=".973" stop-color="#353535"/></linearGradient><path class="st11" d="M13.1 23.3L0 30.9l13.1-7.6z"/></svg>